<svg width="58" height="58" viewBox="0 0 58 58" fill="none" xmlns="http://www.w3.org/2000/svg">
<circle cx="29" cy="29" r="29" fill="#7C9885"/>
<path d="M19 34.7143V36.4971C19 37.9829 19.9333 39.2857 21.3111 39.7543L22.7222 40.2343L23.8444 42.4857C24.6111 44.04 26.1556 45 27.8667 45H30.1333C31.8444 45 33.3889 44.04 34.1556 42.4857L35.2778 40.2343L36.6889 39.7543C38.0667 39.2857 39 37.9714 39 36.4971V34.7143C39 32.8286 37.4889 31.2857 35.6222 31.2857H35.1667L35.2667 31.08L36.6778 30.6C38.0667 30.1429 39 28.8286 39 27.3543V25.5714C39 23.6857 37.4889 22.1429 35.6222 22.1429H35.1667L35.2667 21.9371L36.6778 21.4571C38.0667 21 39 19.6857 39 18.2114V16.4286C39 14.5429 37.4889 13 35.6222 13H33.3556C32.9333 13 32.5556 13.24 32.3667 13.6286L31.8556 14.6457C31.6667 15.0457 31.2778 15.2857 30.8333 15.2857H27.1667C26.7222 15.2857 26.3222 15.0457 26.1333 14.6457L25.6222 13.6286C25.4333 13.24 25.0556 13 24.6333 13H22.3667C20.5111 13 19 14.5429 19 16.4286V18.2114C19 19.6857 19.9333 21 21.3111 21.4686L22.7222 21.9486L22.8222 22.1429H22.3667C20.5111 22.1429 19 23.6857 19 25.5714V27.3543C19 28.84 19.9333 30.1429 21.3111 30.6114L22.7222 31.0914L22.8222 31.2857H22.3667C20.5111 31.2857 19 32.8286 19 34.7143ZM36.7778 34.7143V36.4971C36.7778 36.9886 36.4667 37.4229 36 37.5829L34.1556 38.2C33.8778 38.2914 33.6444 38.4971 33.5111 38.7714L32.1889 41.4457C31.7889 42.2229 31.0111 42.7143 30.1333 42.7143H27.8667C26.9889 42.7143 26.2111 42.2229 25.8222 41.4457L24.5 38.7714C24.3667 38.4971 24.1333 38.3029 23.8556 38.2L22 37.5829C21.5333 37.4229 21.2222 36.9886 21.2222 36.4971V34.7143C21.2222 34.0857 21.7444 33.5714 22.3778 33.5714H23.9667C24 33.6286 24.0444 33.6857 24.0778 33.7314C24.1333 33.8114 24.1778 33.8914 24.2333 33.9714C24.3 34.0629 24.3667 34.1429 24.4333 34.2343C24.4889 34.3029 24.5556 34.3829 24.6222 34.4514C24.7 34.5314 24.7778 34.6 24.8556 34.68C24.9222 34.7371 24.9889 34.8057 25.0667 34.8629C25.1556 34.9314 25.2444 35 25.3333 35.0571C25.4111 35.1029 25.4778 35.16 25.5556 35.2057C25.6556 35.2629 25.7556 35.32 25.8556 35.3657C25.9333 35.4 26.0111 35.4457 26.0889 35.48C26.2 35.5257 26.3111 35.56 26.4222 35.6057C26.5 35.6286 26.5778 35.6629 26.6556 35.6857C26.7889 35.72 26.9222 35.7429 27.0444 35.7657C27.1111 35.7771 27.1778 35.8 27.2444 35.8114C27.4444 35.8343 27.6556 35.8571 27.8667 35.8571H30.1333C30.3444 35.8571 30.5444 35.8457 30.7556 35.8114C30.8222 35.8 30.8889 35.7886 30.9556 35.7657C31.0889 35.7429 31.2222 35.72 31.3556 35.6857C31.4333 35.6629 31.5 35.6286 31.5778 35.6057C31.6889 35.5714 31.8111 35.5257 31.9222 35.48C32 35.4457 32.0667 35.4114 32.1444 35.3657C32.2444 35.3086 32.3556 35.2629 32.4556 35.2057C32.5333 35.16 32.6 35.1143 32.6667 35.0571C32.7667 34.9886 32.8556 34.9314 32.9444 34.8514C33.0111 34.7943 33.0778 34.7371 33.1444 34.68C33.2333 34.6 33.3111 34.5314 33.3889 34.44C33.4556 34.3714 33.5111 34.3029 33.5667 34.2343C33.6444 34.1429 33.7111 34.0629 33.7778 33.96C33.8333 33.88 33.8778 33.8114 33.9333 33.7314C33.9667 33.6743 34.0111 33.6171 34.0444 33.56H35.6333C36.2556 33.5714 36.7778 34.0857 36.7778 34.7143ZM22 19.2971C21.5333 19.1371 21.2222 18.7029 21.2222 18.2114V16.4286C21.2222 15.8 21.7444 15.2857 22.3778 15.2857H23.9556L24.1556 15.6857C24.7333 16.8514 25.8889 17.5714 27.1667 17.5714H30.8333C32.1111 17.5714 33.2667 16.8514 33.8444 15.6857L34.0444 15.2857H35.6222C36.2556 15.2857 36.7778 15.8 36.7778 16.4286V18.2114C36.7778 18.7029 36.4667 19.1371 36 19.2971L34.1556 19.9143C33.8778 20.0057 33.6444 20.2114 33.5111 20.4857L32.1889 23.16C31.7889 23.9371 31.0111 24.4286 30.1333 24.4286H27.8667C27.6444 24.4286 27.4333 24.3943 27.2333 24.3371C26.6222 24.1657 26.1111 23.7429 25.8222 23.16L24.5 20.4857C24.3667 20.2114 24.1333 20.0171 23.8556 19.9143L22 19.2971ZM22 28.44C21.5333 28.28 21.2222 27.8457 21.2222 27.3543V25.5714C21.2222 24.9429 21.7444 24.4286 22.3778 24.4286H23.9667C24 24.4857 24.0444 24.5429 24.0778 24.5886C24.1333 24.6686 24.1778 24.7486 24.2333 24.8286C24.3 24.92 24.3667 25 24.4333 25.0914C24.4889 25.16 24.5556 25.24 24.6222 25.3086C24.7 25.3886 24.7778 25.4571 24.8556 25.5371C24.9222 25.5943 24.9889 25.6629 25.0667 25.72C25.1556 25.7886 25.2444 25.8571 25.3333 25.9143C25.4111 25.96 25.4778 26.0171 25.5556 26.0629C25.6556 26.12 25.7556 26.1771 25.8556 26.2229C25.9333 26.2571 26.0111 26.3029 26.0889 26.3371C26.2 26.3829 26.3111 26.4171 26.4222 26.4629C26.5 26.4857 26.5778 26.52 26.6556 26.5429C26.7889 26.5771 26.9222 26.6 27.0444 26.6229C27.1111 26.6343 27.1778 26.6571 27.2444 26.6686C27.4444 26.6914 27.6556 26.7143 27.8667 26.7143H30.1333C30.3444 26.7143 30.5444 26.7029 30.7556 26.6686C30.8222 26.6571 30.8889 26.6457 30.9556 26.6229C31.0889 26.6 31.2222 26.5771 31.3556 26.5429C31.4333 26.52 31.5 26.4857 31.5778 26.4629C31.6889 26.4286 31.8111 26.3829 31.9222 26.3371C32 26.3029 32.0667 26.2686 32.1444 26.2229C32.2444 26.1657 32.3556 26.12 32.4556 26.0629C32.5333 26.0171 32.6 25.9714 32.6667 25.9143C32.7667 25.8457 32.8556 25.7886 32.9444 25.7086C33.0111 25.6514 33.0778 25.5943 33.1444 25.5371C33.2333 25.4571 33.3111 25.3886 33.3889 25.2971C33.4556 25.2286 33.5111 25.16 33.5667 25.0914C33.6444 25 33.7111 24.92 33.7778 24.8171C33.8333 24.7371 33.8778 24.6686 33.9333 24.5886C33.9667 24.5314 34.0111 24.4743 34.0444 24.4171H35.6333C36.2667 24.4171 36.7889 24.9314 36.7889 25.56V27.3429C36.7889 27.8343 36.4778 28.2686 36.0111 28.4286L34.1667 29.0457C33.8889 29.1371 33.6556 29.3429 33.5222 29.6171L32.2 32.2914C31.7889 33.08 31.0111 33.5714 30.1333 33.5714H27.8667C27.6444 33.5714 27.4333 33.5371 27.2333 33.48C26.6222 33.3086 26.1111 32.8857 25.8222 32.3029L24.5 29.6286C24.3667 29.3543 24.1333 29.16 23.8556 29.0571L22 28.44Z" fill="#FAFAFB"/>
</svg>
