<svg width="58" height="58" viewBox="0 0 58 58" fill="none" xmlns="http://www.w3.org/2000/svg">
<circle cx="29" cy="29" r="29" fill="#7C9885"/>
<path fill-rule="evenodd" clip-rule="evenodd" d="M37.2024 18.9756L36.4208 18.194C34.8813 16.6545 32.3867 16.6545 30.8472 18.194L17.8136 31.2276L15.7459 29.1613C15.2323 28.649 14.4008 28.649 13.8885 29.1626C13.3762 29.6749 13.3762 30.5078 13.8885 31.0201L19.5226 36.6489L17.1988 38.9779L15.2415 37.022C14.7292 36.5097 13.8964 36.5097 13.3841 37.0233C12.8718 37.5356 12.8718 38.3684 13.3854 38.8807L19.1232 44.6159C19.6368 45.1282 20.4697 45.1282 20.982 44.6146C21.4943 44.1023 21.4943 43.2695 20.9807 42.7572L19.0575 40.8341L21.38 38.5063L27.022 44.143C27.5356 44.6553 28.3671 44.6553 28.8794 44.143C29.3917 43.6294 29.3917 42.7979 28.8794 42.2843L27.106 40.5122L40.1357 27.4825C41.6753 25.943 41.6753 23.4484 40.1357 21.9089L39.0599 20.833L44.644 15.2423C45.1563 14.7287 45.155 13.8959 44.6427 13.3836C44.1291 12.8713 43.2962 12.8726 42.7839 13.3849L37.2024 18.9756ZM25.2473 38.6561L38.2783 25.6251C38.7919 25.1115 38.7919 24.28 38.2783 23.7663L34.5634 20.0515C34.0498 19.5378 33.2182 19.5378 32.7059 20.0515L31.5789 21.1772L33.0343 22.6327C33.5466 23.145 33.5466 23.9778 33.0343 24.4901C32.522 25.0038 31.6892 25.0038 31.1769 24.4901L29.7214 23.036L27.6196 25.1377L29.0751 26.5919C29.5874 27.1042 29.5874 27.937 29.0751 28.4494C28.5615 28.963 27.73 28.963 27.2177 28.4494L25.7622 26.9952L23.6972 29.0589L25.1527 30.5143C25.665 31.0267 25.665 31.8595 25.1527 32.3718C24.6404 32.8854 23.8076 32.8854 23.2952 32.3718L21.8398 30.9176L19.6723 33.0851L25.2473 38.6561Z" fill="#F8F8FA"/>
</svg>
