<svg width="17" height="10" viewBox="0 0 17 10" fill="none" xmlns="http://www.w3.org/2000/svg">
<path d="M0 5.00015C0 2.24298 2.24329 0 5.00015 0H15.0147C15.6008 0 16.0776 0.476822 16.0776 1.06297C16.0776 1.64881 15.6008 2.12563 15.0147 2.12563H7.54794C7.41021 2.12563 7.29811 2.23773 7.29811 2.37547C7.29811 2.5132 7.4099 2.6253 7.54794 2.6253H10.8678C11.4539 2.6253 11.9308 3.10182 11.9308 3.68796C11.9308 4.27411 11.4539 4.75063 10.8678 4.75063H7.54794C7.41021 4.75063 7.29811 4.86242 7.29811 5.00015C7.29811 5.13789 7.4099 5.24968 7.54794 5.24968H10.2501C10.8363 5.24968 11.3131 5.7262 11.3131 6.31173C11.3131 6.89787 10.8363 7.375 10.2501 7.375H7.54794C7.41021 7.375 7.29811 7.48711 7.29811 7.62422C7.29811 7.76227 7.4099 7.87406 7.54794 7.87406H9.6325C10.2186 7.87406 10.6955 8.35119 10.6955 8.93672C10.6955 9.52287 10.2186 10 9.6325 10H5.00015C2.24298 10.0003 0 7.75733 0 5.00015Z" fill="#1B365D"/>
</svg>
