<svg width="121" height="198" viewBox="0 0 121 198" fill="none" xmlns="http://www.w3.org/2000/svg">
<path d="M35.2323 10.0312C-6.44894 64.0114 21.2291 137.917 61.4768 122.361C84.0682 113.629 74.4588 74.8968 43.1257 87.071C-5.60951 106.007 43.2837 186.161 111.468 177.33" stroke="#D4AA4F" stroke-width="2" stroke-linecap="round"/>
<path d="M106.079 171.404C109.455 172.811 112.797 174.232 116.029 175.984C116.149 176.049 119.865 177.783 119.91 178.692C119.917 178.85 119.716 178.94 119.587 179.02C118.971 179.401 117.914 179.649 117.302 179.811C114.154 180.644 110.961 181.32 107.791 182.061C106.214 182.429 104.642 182.834 103.062 183.187C102.495 183.314 102.159 183.428 102.297 182.703C102.547 181.396 103.103 180.153 103.581 178.931C104.344 176.982 104.859 175.056 105.42 173.039" stroke="#D4AA4F" stroke-width="2" stroke-linecap="round"/>
</svg>
