<svg width="309" height="29" viewBox="0 0 309 29" fill="none" xmlns="http://www.w3.org/2000/svg">
<g opacity="0.1">
<mask id="mask0_8_445" style="mask-type:alpha" maskUnits="userSpaceOnUse" x="0" y="0" width="309" height="29">
<rect width="309" height="29" fill="#D9D9D9"/>
</mask>
<g mask="url(#mask0_8_445)">
<path d="M679.789 18.0169L657.92 10.3433L636.05 18.0169L614.244 10.3433L592.374 18.0169L570.504 10.3433L548.634 18.0169L526.765 10.3433L504.895 18.0169L483.025 10.3433L461.155 18.0169L439.285 10.3433L417.415 18.0169L395.546 10.3432L373.676 18.0169L351.806 10.3432L329.936 18.0169L308.13 10.3432L286.26 18.0169L264.391 10.3432L242.521 18.0169L220.651 10.3432L198.781 18.0169L176.911 10.3432L155.041 18.0169L133.172 10.3432L111.302 18.0169L89.4319 10.3432L67.5621 18.0169L45.6923 10.3432L23.8224 18.0169L1.95258 10.3432" stroke="#1B365D" stroke-miterlimit="10"/>
</g>
</g>
</svg>
