<svg width="354" height="29" viewBox="0 0 354 29" fill="none" xmlns="http://www.w3.org/2000/svg">
<g opacity="0.1">
<mask id="mask0_28_1003" style="mask-type:alpha" maskUnits="userSpaceOnUse" x="0" y="0" width="354" height="29">
<rect width="354" height="29" fill="#D9D9D9"/>
</mask>
<g mask="url(#mask0_28_1003)">
<path d="M681.715 18.0169L659.783 10.3433L637.852 18.0169L615.984 10.3433L594.052 18.0169L572.12 10.3433L550.189 18.0169L528.257 10.3433L506.325 18.0169L484.393 10.3433L462.461 18.0169L440.53 10.3433L418.598 18.0169L396.666 10.3432L374.734 18.0169L352.802 10.3432L330.871 18.0169L309.003 10.3432L287.071 18.0169L265.139 10.3432L243.208 18.0169L221.276 10.3432L199.344 18.0169L177.412 10.3432L155.481 18.0169L133.549 10.3432L111.617 18.0169L89.6852 10.3432L67.7534 18.0169L45.8216 10.3432L23.8898 18.0169L1.95804 10.3432" stroke="#1B365D" stroke-miterlimit="10"/>
</g>
</g>
</svg>
