<svg width="12" height="14" viewBox="0 0 12 14" fill="none" xmlns="http://www.w3.org/2000/svg">
<path d="M5.99964 0.900001L6.00033 0.899998C7.35523 0.9046 8.6533 1.44643 9.60948 2.40667L9.6095 2.40669C10.5651 3.36698 11.1012 4.66731 11.1 6.02218M5.99964 0.900001L11 6.02209M5.99964 0.900001C4.64477 0.904637 3.34665 1.44647 2.39052 2.40667L2.3905 2.40669C1.4349 3.36694 0.898815 4.66728 0.900002 6.02218L1 6.02209H0.900002C0.900002 6.53884 1.05954 7.13698 1.31612 7.76712C1.57322 8.39854 1.9306 9.0689 2.33277 9.73203C3.13706 11.0582 4.12501 12.3629 4.8617 13.2806M5.99964 0.900001L4.8617 13.2806M11.1 6.02218L11 6.02209M11.1 6.02218C11.1 6.02215 11.1 6.02212 11.1 6.02209H11M11.1 6.02218C11.1 6.53894 10.9404 7.13711 10.6839 7.76726C10.4268 8.39873 10.0694 9.06915 9.66724 9.7323C8.86291 11.0586 7.87491 12.3633 7.1382 13.2808M11 6.02209C11 8.01481 8.53121 11.3863 7.06023 13.2181M7.1382 13.2808C7.13821 13.2807 7.13822 13.2807 7.13823 13.2807L7.06023 13.2181M7.1382 13.2808C6.86129 13.6259 6.44229 13.8272 6 13.8272C5.55715 13.8272 5.13808 13.626 4.8617 13.2806M7.1382 13.2808L7.06023 13.2181M7.06023 13.2181L4.8617 13.2806M4.8617 13.2806C4.86173 13.2807 4.86176 13.2807 4.86179 13.2807L4.93977 13.2181L4.8617 13.2806ZM7.83769 3.93498C7.35021 3.44751 6.68959 3.17331 6.00007 3.17272H5.99999C5.31037 3.17272 4.64915 3.44691 4.16171 3.9344C3.67429 4.42189 3.40004 5.08311 3.40004 5.77267C3.40004 6.46222 3.67423 7.12351 4.16172 7.61094C4.64921 8.09837 5.31042 8.37262 5.99999 8.37262C6.68954 8.37262 7.35082 8.09843 7.83826 7.61093C8.32568 7.12345 8.59993 6.46223 8.59993 5.77267V5.77258C8.59934 5.08301 8.32517 4.42239 7.83769 3.93498ZM7.83769 3.93498L7.76698 4.00569M7.83769 3.93498C7.83769 3.93498 7.83768 3.93498 7.83768 3.93498L7.76698 4.00569M7.76698 4.00569C7.29822 3.53694 6.66299 3.27329 5.99999 3.27272L8.49993 5.77267C8.49937 5.1096 8.23573 4.47437 7.76698 4.00569ZM6.27199 12.5875C6.20315 12.6657 6.10403 12.7102 5.99999 12.7102C5.89409 12.7102 5.79408 12.6646 5.72587 12.585C4.55751 11.1303 3.62633 9.78704 2.98776 8.65545C2.34611 7.51838 2.00908 6.61063 2.00908 6.02209C2.00908 4.59644 2.76957 3.27892 4.00444 2.56617C5.23934 1.85341 6.76041 1.85335 7.99536 2.56617C9.23028 3.27897 9.99072 4.59658 9.99072 6.02209C9.99072 6.6106 9.65368 7.51834 9.01201 8.65542C8.37327 9.78732 7.44176 11.1311 6.27299 12.5862L6.27199 12.5875ZM5.99999 7.26362C5.39725 7.26362 4.85357 6.90047 4.62254 6.34349L4.53017 6.3818L4.62258 6.34358C4.39199 5.786 4.51929 5.1449 4.94577 4.71841C5.37225 4.29192 6.01333 4.16462 6.57095 4.39522C7.12788 4.62635 7.49098 5.17 7.49098 5.77263C7.49098 6.16826 7.3339 6.54737 7.05436 6.82691C6.77482 7.10646 6.39563 7.26362 5.99999 7.26362Z" fill="#D4AA4F" stroke="#D4AA4F" stroke-width="0.2"/>
</svg>
