<svg width="58" height="58" viewBox="0 0 58 58" fill="none" xmlns="http://www.w3.org/2000/svg">
<circle cx="29" cy="29" r="29" fill="#7C9885"/>
<path fill-rule="evenodd" clip-rule="evenodd" d="M22.731 26.117C21.344 26.369 20.055 27.038 19.044 28.049C17.735 29.358 17 31.133 17 32.984V37.023C17 38.68 18.343 40.023 20 40.023C24.184 40.023 33.816 40.023 38 40.023C39.657 40.023 41 38.68 41 37.023V32.984C41 31.133 40.265 29.358 38.956 28.049C37.945 27.038 36.656 26.369 35.269 26.117C35.737 25.178 36 24.12 36 23C36 19.137 32.863 16 29 16C25.137 16 22 19.137 22 23C22 24.12 22.263 25.178 22.731 26.117ZM33.9 27.997C32.638 29.236 30.907 30 29 30C27.093 30 25.362 29.236 24.1 27.997C24.06 28.002 24.02 28.004 23.98 28.004C22.659 28.004 21.392 28.529 20.459 29.463C19.525 30.397 19 31.664 19 32.984V37.023C19 37.575 19.448 38.023 20 38.023H38C38.552 38.023 39 37.575 39 37.023V32.984C39 31.664 38.475 30.397 37.541 29.463C36.608 28.529 35.341 28.004 34.02 28.004C33.98 28.004 33.94 28.002 33.9 27.997ZM29 18C31.76 18 34 20.241 34 23C34 25.76 31.76 28 29 28C26.24 28 24 25.76 24 23C24 20.241 26.24 18 29 18Z" fill="#F8F8FA"/>
<path fill-rule="evenodd" clip-rule="evenodd" d="M33 32.0498H32C31.448 32.0498 31 32.4978 31 33.0498C31 33.6018 31.448 34.0498 32 34.0498H33V35.0498C33 35.6018 33.448 36.0498 34 36.0498C34.552 36.0498 35 35.6018 35 35.0498V34.0498H36C36.552 34.0498 37 33.6018 37 33.0498C37 32.4978 36.552 32.0498 36 32.0498H35V31.0498C35 30.4978 34.552 30.0498 34 30.0498C33.448 30.0498 33 30.4978 33 31.0498V32.0498Z" fill="#F8F8FA"/>
</svg>
