<svg width="14" height="14" viewBox="0 0 14 14" fill="none" xmlns="http://www.w3.org/2000/svg">
<path d="M4.9124 10.8359L4.92195 10.8292L4.91475 10.8378C4.91635 10.8392 4.91873 10.8412 4.92185 10.8438C5.07841 10.9756 7.1247 12.698 9.45829 13.0509C9.53577 13.0663 9.75578 13.1093 10.061 13.1093C10.7175 13.1093 11.7757 12.9342 12.629 11.9684C12.7542 11.8577 13.073 11.5481 13.1356 11.0524C13.1989 10.6213 13.0518 10.202 12.7397 9.80062L12.7339 9.79324L12.7273 9.78664L12.6851 9.74444L12.6851 9.74443L12.6838 9.74311L10.9837 8.0853C10.7096 7.7969 10.0312 7.42717 9.21276 7.93371C9.16544 7.9593 9.12588 7.99906 9.11339 8.01162C9.11261 8.0124 9.11193 8.01308 9.11137 8.01364C9.11131 8.0137 9.11125 8.01376 9.11119 8.01382L8.40643 8.70604C7.69521 8.27644 6.14566 7.19088 5.2936 5.61596L5.77797 5.1316C5.78026 5.12931 5.7828 5.12678 5.78559 5.124C5.88412 5.02604 6.28394 4.62851 6.30006 4.03254C6.3156 3.72773 6.23239 3.29186 5.80603 2.86559C5.80602 2.86559 5.80602 2.86558 5.80601 2.86558L4.11808 1.17754L4.11808 1.17754L4.1177 1.17716C4.10194 1.1614 4.07702 1.13648 4.0342 1.11316C3.69951 0.879738 2.86693 0.607624 2.14097 1.24093L2.14074 1.24067L2.13358 1.24782C2.13363 1.24778 2.13359 1.24781 2.13343 1.24796C2.1329 1.24846 2.13106 1.2502 2.12675 1.2542L2.10751 1.27201C2.09162 1.28678 2.07039 1.30673 2.04483 1.3317C1.99372 1.38162 1.92567 1.45123 1.8479 1.53985C1.69249 1.71693 1.49779 1.97046 1.32169 2.29529C0.969764 2.94446 0.692778 3.87805 0.951416 5.0477C0.987762 5.49907 1.34411 7.73129 4.9124 10.8359ZM11.8871 11.09C11.8854 11.0917 11.8839 11.0933 11.8825 11.0948C11.8413 11.1208 11.8049 11.1582 11.78 11.1995C11.3608 11.6914 10.8535 11.8764 10.4401 11.9371C10.2314 11.9678 10.0474 11.9665 9.91262 11.9568C9.84534 11.9519 9.7907 11.945 9.75184 11.939C9.73242 11.936 9.71704 11.9332 9.70611 11.9311C9.69574 11.9291 9.69038 11.9279 9.68958 11.9277L9.68949 11.9277L9.67151 11.9232H9.65297H9.63591C8.6203 11.7709 7.6353 11.2918 6.8963 10.8425C6.52669 10.6178 6.22125 10.4021 6.0076 10.242C5.90082 10.162 5.81711 10.0959 5.75993 10.0496C5.73133 10.0265 5.70943 10.0084 5.69465 9.99597C5.68738 9.98988 5.68274 9.9859 5.68005 9.98361L5.67195 9.97655C3.93956 8.4677 3.04468 7.20881 2.58147 6.32889C2.34984 5.88887 2.22579 5.54295 2.15895 5.30701C2.12553 5.18903 2.10631 5.09819 2.09509 5.03642C2.08949 5.00554 2.08582 4.98161 2.08332 4.96458L2.08012 4.9426L2.08003 4.94203C2.07992 4.916 2.07807 4.87162 2.05934 4.82427C1.70921 3.21632 2.7437 2.24806 2.88152 2.11906C2.88431 2.11646 2.88673 2.11419 2.88876 2.11227C3.10249 1.93131 3.29403 1.99965 3.35595 2.03507L5.00099 3.6523C5.12969 3.79468 5.17019 3.8994 5.17019 3.9704C5.17019 4.03041 5.14607 4.0941 5.10825 4.15521C5.07913 4.20225 5.0459 4.24131 5.02123 4.26767C5.02012 4.26837 5.01901 4.26909 5.0179 4.26983C4.99546 4.28479 4.98012 4.30303 4.96985 4.31969L4.2154 5.07414C4.04366 5.24588 4.00514 5.49562 4.10007 5.70549C4.69015 7.02952 5.69789 8.06358 6.56726 8.77116C7.42375 9.46828 8.15776 9.85794 8.25203 9.90156C8.4737 10.0111 8.73976 9.9767 8.91466 9.80225C8.91478 9.80213 8.9149 9.80201 8.91502 9.80189L9.8695 8.86133C10.0546 8.76561 10.1379 8.82107 10.1514 8.83002C10.1537 8.8316 10.1539 8.83173 10.1521 8.82934L10.1585 8.8378L10.166 8.84532L10.1942 8.87349L10.1942 8.8735L10.1955 8.87482L11.8778 10.5151C11.9932 10.6557 12.0269 10.7778 12.0229 10.8507C12.0003 10.9283 11.9632 10.9919 11.9303 11.0372C11.9131 11.0607 11.8977 11.0785 11.8871 11.09Z" fill="#D4AA4F" stroke="#D4AA4F" stroke-width="0.3"/>
</svg>
