<svg width="122" height="198" viewBox="0 0 122 198" fill="none" xmlns="http://www.w3.org/2000/svg">
<path d="M85.808 10.0312C127.489 64.0114 99.8112 137.917 59.5634 122.361C36.9721 113.629 46.5814 74.8968 77.9145 87.071C126.65 106.007 77.7565 186.161 9.57235 177.33" stroke="#D4AA4F" stroke-width="2" stroke-linecap="round"/>
<path d="M14.9614 171.404C11.5856 172.811 8.24368 174.232 5.01078 175.984C4.8913 176.049 1.17502 177.783 1.13071 178.692C1.12302 178.85 1.32411 178.94 1.4535 179.02C2.06938 179.401 3.12673 179.649 3.73828 179.811C6.88605 180.644 10.0791 181.32 13.2492 182.061C14.8259 182.429 16.3979 182.834 17.9779 183.187C18.5451 183.314 18.8811 183.428 18.7428 182.703C18.4937 181.396 17.9376 180.153 17.4591 178.931C16.6959 176.982 16.1813 175.056 15.6199 173.039" stroke="#D4AA4F" stroke-width="2" stroke-linecap="round"/>
</svg>
