<svg width="20" height="20" viewBox="0 0 20 20" fill="none" xmlns="http://www.w3.org/2000/svg">
<circle cx="10" cy="10" r="10" transform="matrix(-1 0 0 1 20 0)" fill="#D4AA4F"/>
<path d="M11.3029 13.1076C11.4837 13.1076 11.6575 13.038 11.7966 12.9059C12.0678 12.6347 12.0678 12.1897 11.7966 11.9185L9.6897 9.80465L11.7966 7.69079C12.0678 7.4196 12.0678 6.97458 11.7966 6.70339C11.5254 6.4322 11.0804 6.4322 10.8092 6.70339L8.20165 9.31095C8.06954 9.44307 8 9.61691 8 9.80465C8 9.99239 8.07649 10.1662 8.20165 10.2983L10.8092 12.9059C10.9483 13.038 11.1291 13.1076 11.3029 13.1076Z" fill="white"/>
</svg>
