<svg width="14" height="14" viewBox="0 0 14 14" fill="none" xmlns="http://www.w3.org/2000/svg">
<path fill-rule="evenodd" clip-rule="evenodd" d="M13.708 6.6103L11.9253 9.08705C11.8609 9.17654 11.8354 9.25821 11.8369 9.36979L11.8802 12.4635C11.8872 12.9619 11.6689 13.4162 11.281 13.709C11.027 13.9009 10.7325 14 10.432 14C10.2738 14 10.1137 13.9724 9.9574 13.9172L7.1428 12.9184C7.04132 12.8823 6.95847 12.8823 6.8571 12.9184L4.0425 13.9172C3.5887 14.078 3.10658 14.0024 2.71876 13.7092C2.33104 13.4163 2.11252 12.9621 2.1196 12.4637L2.16283 9.36972C2.16446 9.25814 2.13876 9.17635 2.07463 9.08698L0.291854 6.61023C0.00462423 6.21148 -0.0752874 5.71046 0.0730076 5.23625C0.220865 4.76196 0.568504 4.40602 1.02623 4.25876L3.86787 3.34539C3.97033 3.31242 4.03718 3.2619 4.09881 3.17071L5.81179 0.641154C6.08769 0.233796 6.52091 0 6.99998 0C7.47906 0 7.91226 0.23381 8.18818 0.641154L9.90116 3.1708C9.96279 3.26199 10.0299 3.31251 10.1323 3.34547L12.9737 4.25885C13.4316 4.40611 13.7791 4.76214 13.9271 5.23657C14.0752 5.71043 13.9954 6.21157 13.7081 6.6102L13.708 6.6103Z" fill="#D4AA4F"/>
</svg>
