<svg xmlns="http://www.w3.org/2000/svg" xml:space="preserve" id="Layer_1" x="0" y="0" style="enable-background:new 0 0 696 349.9" viewBox="0 0 696 349.9"><style>.st0{fill:#fff}</style><path d="M19.9 25.5h661.3V302H19.9z" class="st0"></path><linearGradient id="SVGID_1_" x1="351.6" x2="351.6" y1="434.514" y2="703.697" gradientTransform="translate(0 -416)" gradientUnits="userSpaceOnUse"><stop offset="0" style="stop-color:#19314a"></stop><stop offset=".543" style="stop-color:#0086c5"></stop><stop offset="1" style="stop-color:#152c42"></stop></linearGradient><path d="M28 39.3h647.2v243.2H28z" style="fill:url(#SVGID_1_)"></path><path d="M26.1 36.8h647.2V280H26.1z" style="fill:#11385b;fill-opacity:.53"></path><path d="M675 282.9H26.3V37H675v245.9zm-646.3-2.4h643.9V39.4H28.7v241.1z" style="fill:#1961ad"></path><linearGradient id="SVGID_00000065064178127355226190000018298926881626776231_" x1="84.7" x2="84.7" y1="651.375" y2="367.078" gradientTransform="translate(0 -416)" gradientUnits="userSpaceOnUse"><stop offset=".01" style="stop-color:#616161"></stop><stop offset=".242" style="stop-color:#b7b9bb"></stop><stop offset=".371" style="stop-color:#f7f7f8"></stop><stop offset=".939" style="stop-color:#c9c9c9"></stop></linearGradient><path d="M45.4 43.9H124v16.8H63.8v29.2h53.4v16.8H63.8v43.1H45.4V43.9z" style="fill:url(#SVGID_00000065064178127355226190000018298926881626776231_)"></path><linearGradient id="SVGID_00000112603078229801247960000006040743218391190935_" x1="180.05" x2="180.05" y1="651.375" y2="367.078" gradientTransform="translate(0 -416)" gradientUnits="userSpaceOnUse"><stop offset=".01" style="stop-color:#616161"></stop><stop offset=".242" style="stop-color:#b7b9bb"></stop><stop offset=".371" style="stop-color:#f7f7f8"></stop><stop offset=".939" style="stop-color:#c9c9c9"></stop></linearGradient><path d="M179.9 151.6c-8.2 0-15.6-1.4-22.4-4.3-6.8-2.9-12.5-6.8-17.4-11.7-4.8-4.9-8.6-10.7-11.3-17.3-2.7-6.6-4.1-13.6-4.1-21.1v-.3c0-7.5 1.4-14.5 4.1-21.1s6.5-12.4 11.5-17.4c4.9-5 10.8-8.9 17.5-11.9 6.8-2.9 14.2-4.4 22.4-4.4s15.6 1.4 22.4 4.3c6.7 2.9 12.5 6.8 17.4 11.7 4.8 4.9 8.6 10.7 11.3 17.3s4.1 13.6 4.1 21.1v.3c0 7.5-1.4 14.5-4.1 21.1-2.7 6.6-6.6 12.4-11.5 17.4s-10.8 8.9-17.5 11.9c-6.8 2.9-14.3 4.4-22.4 4.4zm.3-17.1c5.2 0 10-1 14.4-2.9 4.4-2 8.1-4.6 11.2-8 3.1-3.4 5.5-7.3 7.3-11.9 1.8-4.5 2.6-9.4 2.6-14.5v-.3c0-5.1-.9-10-2.6-14.6s-4.2-8.6-7.4-11.9c-3.2-3.4-6.9-6.1-11.4-8.1-4.4-2-9.2-3-14.4-3s-10 1-14.4 2.9c-4.4 2-8.1 4.6-11.2 8-3.1 3.4-5.5 7.3-7.3 11.9-1.8 4.5-2.6 9.4-2.6 14.5v.3c0 5.1.9 10 2.6 14.6 1.8 4.6 4.2 8.6 7.4 11.9 3.2 3.4 7 6.1 11.4 8.1s9.2 3 14.4 3z" style="fill:url(#SVGID_00000112603078229801247960000006040743218391190935_)"></path><linearGradient id="SVGID_00000054968374069657681620000015619727800836800182_" x1="287.75" x2="287.75" y1="651.375" y2="367.078" gradientTransform="translate(0 -416)" gradientUnits="userSpaceOnUse"><stop offset=".01" style="stop-color:#616161"></stop><stop offset=".242" style="stop-color:#b7b9bb"></stop><stop offset=".371" style="stop-color:#f7f7f8"></stop><stop offset=".939" style="stop-color:#c9c9c9"></stop></linearGradient><path d="M242.8 43.9H290c6.7 0 12.5.9 17.7 2.8 5.1 1.9 9.4 4.5 12.8 7.8 2.8 2.9 5 6.3 6.5 10.1s2.3 8.1 2.3 12.7v.3c0 4.3-.6 8.2-1.9 11.7s-3 6.6-5.2 9.2c-2.2 2.7-4.9 4.9-7.9 6.8-3.1 1.9-6.5 3.3-10.2 4.3l28.6 40.1h-21.9l-26.1-36.9h-23.3v36.9H243V43.9h-.2zm45.7 52.5c6.7 0 12-1.6 15.9-4.8 3.9-3.2 5.9-7.5 5.9-13v-.3c0-5.8-1.9-10.1-5.8-13.1-3.8-3-9.3-4.5-16.2-4.5h-27.1v35.7h27.3z" style="fill:url(#SVGID_00000054968374069657681620000015619727800836800182_)"></path><linearGradient id="SVGID_00000126306925983064291710000004513689200207676073_" x1="375.35" x2="375.35" y1="651.375" y2="367.078" gradientTransform="translate(0 -416)" gradientUnits="userSpaceOnUse"><stop offset=".01" style="stop-color:#616161"></stop><stop offset=".242" style="stop-color:#b7b9bb"></stop><stop offset=".371" style="stop-color:#f7f7f8"></stop><stop offset=".939" style="stop-color:#c9c9c9"></stop></linearGradient><path d="M366 61.2h-33.6V43.9h85.9v17.2h-33.6v88.6H366V61.2z" style="fill:url(#SVGID_00000126306925983064291710000004513689200207676073_)"></path><linearGradient id="SVGID_00000147181059564047447820000014798384849383646391_" x1="111.55" x2="111.55" y1="754.899" y2="344.577" gradientTransform="translate(0 -416)" gradientUnits="userSpaceOnUse"><stop offset=".01" style="stop-color:#616161"></stop><stop offset=".393" style="stop-color:#fff"></stop><stop offset=".939" style="stop-color:#9a9a9a"></stop></linearGradient><path d="M33.9 161.8h29.3l17.4 57.9 19.3-58.2h23.9l19.3 58.2 17.4-57.9h28.7l-33.4 100.7h-24.1l-20.2-57.6-20 57.6H67.3L33.9 161.8z" style="fill:url(#SVGID_00000147181059564047447820000014798384849383646391_)"></path><linearGradient id="SVGID_00000098929394846102596370000014876633139655147679_" x1="222.45" x2="222.45" y1="754.899" y2="344.577" gradientTransform="translate(0 -416)" gradientUnits="userSpaceOnUse"><stop offset=".01" style="stop-color:#616161"></stop><stop offset=".393" style="stop-color:#fff"></stop><stop offset=".939" style="stop-color:#9a9a9a"></stop></linearGradient><path d="M209.1 161h26.7l42.6 100.7h-29.7l-7.3-17.9h-38.6l-7.1 17.9h-29.2L209.1 161zm24.3 61.5L222.2 194l-11.3 28.4h22.5v.1z" style="fill:url(#SVGID_00000098929394846102596370000014876633139655147679_)"></path><linearGradient id="SVGID_00000115502482139963144330000001215987790304819631_" x1="302.35" x2="302.35" y1="754.899" y2="344.577" gradientTransform="translate(0 -416)" gradientUnits="userSpaceOnUse"><stop offset=".01" style="stop-color:#616161"></stop><stop offset=".393" style="stop-color:#fff"></stop><stop offset=".939" style="stop-color:#9a9a9a"></stop></linearGradient><path d="m288.4 224.3-38-62.6H282l20.6 36.4 20.7-36.4h31l-38 62.2v37.9h-27.9v-37.5z" style="fill:url(#SVGID_00000115502482139963144330000001215987790304819631_)"></path><linearGradient id="SVGID_00000103958113481425048520000003021436127011175301_" x1="407.2" x2="407.2" y1="754.899" y2="344.577" gradientTransform="translate(0 -416)" gradientUnits="userSpaceOnUse"><stop offset=".01" style="stop-color:#616161"></stop><stop offset=".393" style="stop-color:#fff"></stop><stop offset=".939" style="stop-color:#9a9a9a"></stop></linearGradient><path d="M360 161.8h25.9l41.2 52.9v-52.9h27.3v100h-24.3l-42.8-54.9v54.9H360v-100z" style="fill:url(#SVGID_00000103958113481425048520000003021436127011175301_)"></path><linearGradient id="SVGID_00000168105127985267103870000005603197596186109826_" x1="504.1" x2="504.1" y1="754.899" y2="344.577" gradientTransform="translate(0 -416)" gradientUnits="userSpaceOnUse"><stop offset=".01" style="stop-color:#616161"></stop><stop offset=".393" style="stop-color:#fff"></stop><stop offset=".939" style="stop-color:#9a9a9a"></stop></linearGradient><path d="M463.6 161.8h80.3v23.6h-53v15.1h48v21.9h-48v15.9h53.7v23.6h-81V161.8z" style="fill:url(#SVGID_00000168105127985267103870000005603197596186109826_)"></path><linearGradient id="SVGID_00000015317867159664940960000003534542250624321705_" x1="558.758" x2="558.758" y1="721.744" y2="388.994" gradientTransform="translate(0 -416)" gradientUnits="userSpaceOnUse"><stop offset=".01" style="stop-color:#616161"></stop><stop offset=".393" style="stop-color:#fff"></stop><stop offset=".939" style="stop-color:#9a9a9a"></stop></linearGradient><path d="M547.9 190.6c3.6-.4 5.5 0 7.2-1.9 1.6-1.9 1.9-5.5 1.7-8.4h-8.2v-18.7h21v16.9c.1 5.6-.3 7.5-1.1 10.1-1 3.1-2.9 6.2-4.4 7.3-2 1.5-4.3 2.6-7.2 3.4-2.7.7-5.7.7-9 .8v-9.5z" style="fill:url(#SVGID_00000015317867159664940960000003534542250624321705_);stroke:#fff;stroke-width:.5;stroke-miterlimit:10"></path><linearGradient id="SVGID_00000147934533468384558450000006270317369805996217_" x1="614.05" x2="614.05" y1="755.854" y2="345.531" gradientTransform="translate(0 -416)" gradientUnits="userSpaceOnUse"><stop offset=".01" style="stop-color:#616161"></stop><stop offset=".393" style="stop-color:#fff"></stop><stop offset=".939" style="stop-color:#9a9a9a"></stop></linearGradient><path d="M617.3 264.5c-9 0-17.5-1.4-25.5-4.2-8.1-2.8-15.2-6.9-21.4-12.5l15.4-18.5c10 8 20.8 12 32.4 12 3.7 0 6.5-.6 8.5-1.8s2.9-2.9 2.9-5.1v-.3c0-1-.2-2-.7-2.8s-1.4-1.6-2.6-2.4c-1.3-.8-3-1.5-5.1-2.2s-4.9-1.5-8.4-2.2c-5.3-1.2-10.3-2.6-14.9-4.1-4.6-1.5-8.6-3.4-11.9-5.7-3.4-2.3-6-5.2-8-8.7s-2.9-7.8-2.9-12.9v-.3c0-4.7.9-8.9 2.6-12.8 1.8-3.9 4.3-7.3 7.7-10.1 3.4-2.9 7.5-5.1 12.2-6.6 4.8-1.6 10.1-2.4 16.1-2.4 8.6 0 16.2 1.1 22.9 3.4 6.7 2.3 12.8 5.6 18.2 10L641.1 194c-4.6-3.2-9.3-5.7-14.1-7.4s-9.5-2.5-13.9-2.5c-3.3 0-5.8.6-7.5 1.9-1.7 1.2-2.5 2.8-2.5 4.6v.3c0 1.1.3 2.1.8 3s1.4 1.6 2.7 2.4c1.3.7 3 1.4 5.3 2.1 2.2.7 5.1 1.5 8.5 2.2 5.7 1.2 10.9 2.7 15.5 4.3 4.6 1.7 8.6 3.7 11.8 6.1 3.2 2.4 5.7 5.3 7.4 8.6 1.7 3.4 2.6 7.4 2.6 12.1v.3c0 5.1-1 9.7-2.9 13.7-2 4-4.7 7.4-8.2 10.2-3.5 2.8-7.8 4.9-12.7 6.4-5 1.4-10.5 2.2-16.6 2.2z" style="fill:url(#SVGID_00000147934533468384558450000006270317369805996217_)"></path><path d="M64.9 151.2H44.1V43h81v19.2H64.9V89h53.4v19.2H64.9v43zm-18.4-2.3h16.1v-43.1H116V91.4H62.5V59.8h60.2V45.4H46.5v103.5zM179.8 153.1c-8.3 0-16-1.5-22.8-4.4-6.9-2.9-12.8-7-17.8-12-4.9-5-8.8-11-11.6-17.7-2.8-6.7-4.2-14-4.2-21.5v-.3c0-7.6 1.4-14.8 4.2-21.5s6.7-12.7 11.7-17.8 11-9.2 17.9-12.1c6.9-3 14.6-4.5 22.8-4.5 8.3 0 16 1.5 22.8 4.4 6.9 2.9 12.8 7 17.8 12 4.9 5 8.8 11 11.6 17.7s4.2 14 4.2 21.5v.3c0 7.6-1.4 14.8-4.2 21.5s-6.7 12.7-11.7 17.8-11.1 9.2-17.9 12.1c-6.8 2.9-14.5 4.5-22.8 4.5zm.3-109.5c-8 0-15.3 1.4-21.9 4.3-6.6 2.8-12.4 6.8-17.2 11.6-4.8 4.9-8.6 10.6-11.2 17-2.6 6.4-4 13.4-4 20.6v.3c0 7.3 1.3 14.2 4 20.6s6.4 12.1 11.1 16.9c4.7 4.8 10.4 8.7 17 11.5s13.9 4.2 21.9 4.2 15.3-1.4 21.9-4.3c6.6-2.8 12.3-6.8 17.2-11.6 4.8-4.9 8.6-10.6 11.2-17 2.6-6.4 4-13.4 4-20.6v-.3c0-7.3-1.3-14.2-4-20.6s-6.4-12.1-11.1-16.9c-4.7-4.8-10.4-8.7-17-11.5-6.6-2.8-13.9-4.2-21.9-4.2zm0 92.4c-5.4 0-10.4-1.1-14.9-3.1-4.5-2.1-8.5-4.9-11.7-8.4s-5.8-7.6-7.6-12.3c-1.8-4.7-2.7-9.7-2.7-15v-.3c0-5.3.9-10.3 2.7-14.9s4.3-8.8 7.5-12.2c3.2-3.5 7.1-6.3 11.6-8.3s9.5-3.1 14.9-3.1 10.4 1.1 14.9 3.1c4.5 2.1 8.5 4.9 11.7 8.4 3.3 3.5 5.8 7.6 7.6 12.3 1.8 4.7 2.7 9.8 2.7 15v.3c0 5.3-.9 10.3-2.7 14.9-1.8 4.7-4.3 8.8-7.5 12.2-3.2 3.5-7.1 6.3-11.6 8.3s-9.5 3.1-14.9 3.1zm-.3-75.3c-5 0-9.7 1-13.9 2.8-4.2 1.9-7.8 4.5-10.8 7.7-3 3.3-5.4 7.1-7.1 11.5-1.7 4.4-2.6 9.1-2.6 14.1v.3c0 5 .9 9.7 2.6 14.2 1.7 4.4 4.1 8.3 7.1 11.6 3 3.2 6.7 5.9 11 7.8 4.2 1.9 8.9 2.9 14 2.9 5 0 9.7-1 13.9-2.8 4.2-1.9 7.8-4.5 10.8-7.7s5.4-7.1 7.1-11.5c1.7-4.4 2.6-9.1 2.6-14.1v-.3c0-5-.9-9.7-2.6-14.2-1.7-4.4-4.1-8.3-7.1-11.6-3-3.2-6.7-5.9-11-7.8-4.3-1.9-9-2.9-14-2.9zM334.8 151.2h-24.9l-26.1-36.9h-21.5v36.9h-20.8V43h48.4c6.8 0 12.8 1 18.1 2.9 5.3 1.9 9.7 4.6 13.3 8 3 3.1 5.2 6.6 6.8 10.5 1.6 4 2.4 8.4 2.4 13.1v.3c0 4.4-.7 8.5-2 12.1s-3.1 6.8-5.4 9.6c-2.3 2.8-5.1 5.1-8.2 7.1-2.7 1.6-5.7 3-8.9 4l28.8 40.6zm-23.6-2.3h19L302 109.3l1.7-.4c3.6-1 6.9-2.4 9.9-4.2 2.9-1.8 5.5-4 7.6-6.5s3.8-5.5 5-8.9c1.2-3.3 1.8-7.1 1.8-11.3v-.3c0-4.5-.7-8.6-2.2-12.3-1.4-3.7-3.5-6.9-6.3-9.7-3.3-3.2-7.4-5.7-12.4-7.5s-10.8-2.7-17.3-2.7h-46v103.4h16.1V112h25.2l26.1 36.9zm-22.8-51h-28.5V59.8h28.3c7.2 0 12.9 1.6 17 4.7 4.1 3.2 6.2 7.9 6.2 14.1v.3c0 5.8-2.1 10.5-6.4 13.9-4 3.4-9.7 5.1-16.6 5.1zm-26.1-2.4h26.1c6.4 0 11.5-1.5 15.2-4.5s5.5-6.9 5.5-12.1v-.3c0-5.4-1.7-9.4-5.3-12.2-3.6-2.8-8.8-4.2-15.5-4.2h-25.9v33.3h-.1zM385.8 151.2h-21.1V62.7h-33.6V43h88.2v19.6h-33.6v88.6h.1zm-18.7-2.3h16.4V60.3H417V45.4h-83.5v14.8h33.6v88.7zM156.6 264h-25.9l-19.3-55.2L92.3 264H66.4l-.3-.8-34-102.3H64L80.6 216 99 160.6h25.6L143 216l16.6-55.1h31.3L156.6 264zm-24.2-2.4h22.4l32.6-98.4h-26.2l-18.3 60.6-20.1-60.8h-22.1l-20.2 60.9-18.3-60.6H35.5l32.6 98.4h22.4l20.9-60 21 59.9zM280.1 263.3h-32.3l-7.3-17.9h-37l-7.1 17.9h-31.8l43.6-103.1h28.3l.3.7 43.3 102.4zm-30.7-2.4h27.1L235 162.5h-25.1l-41.6 98.4h26.5l7.1-17.9h40.2l7.3 17.9zM235.1 224h-25.9l13.1-32.9 12.8 32.9zm-22.5-2.4h18.9l-9.4-24-9.5 24zM317.4 263.3h-30.3V225l-38.9-64.1h34.4l19.9 35.2 20-35.2h33.8l-38.9 63.7v38.7zm-27.9-2.4H315v-37l37.1-60.6h-28.2L302.5 201l-21.3-37.7h-28.8l37.1 61.1v36.5zM455.6 263.3h-26.1l-41-52.6v52.6h-29.7V160.9h27.7l39.5 50.6v-50.6h29.7v102.4h-.1zm-25-2.4h22.6v-97.6h-24.9v55.2l-43-55.2h-24.1v97.6H386v-57.1l44.6 57.1zM545.7 263.3h-83.4V160.9H545v26h-53v12.8h48V224h-48v13.5h53.7v25.8zm-81-2.4h78.6v-21.2h-53.7v-18.2h48V202h-48v-17.5h53v-21.2h-77.9v97.6zM617.2 265.9c-9 0-17.8-1.4-25.9-4.2-8.2-2.8-15.5-7.1-21.8-12.8l-.9-.8 16.9-20.3.9.7c9.7 7.8 20.4 11.7 31.7 11.7 3.5 0 6.1-.5 7.9-1.6 1.6-1 2.4-2.3 2.4-4v-.3c0-.8-.2-1.5-.5-2.2-.4-.6-1.1-1.3-2.2-1.9-1.2-.7-2.9-1.4-4.9-2.1-2.1-.7-4.9-1.4-8.2-2.2-5.3-1.2-10.4-2.6-15-4.1-4.7-1.5-8.8-3.5-12.2-5.9-3.5-2.4-6.3-5.5-8.4-9.1-2-3.6-3.1-8.2-3.1-13.5v-.3c0-4.8.9-9.3 2.8-13.3 1.8-4 4.5-7.6 8-10.5s7.7-5.2 12.6-6.9c4.9-1.6 10.4-2.4 16.5-2.4 8.7 0 16.5 1.2 23.3 3.4 6.8 2.3 13.1 5.7 18.6 10.2l.9.7-15.2 21.8-1-.7c-4.5-3.2-9.1-5.6-13.8-7.2-4.7-1.6-9.2-2.4-13.5-2.4-3.1 0-5.3.5-6.8 1.6-1.4 1-2 2.2-2 3.6v.3c0 .9.2 1.7.6 2.4.4.7 1.2 1.3 2.3 1.9 1.2.7 2.9 1.4 5.1 2 2.2.7 5 1.4 8.4 2.2 5.7 1.2 11 2.7 15.6 4.4 4.7 1.7 8.8 3.8 12.1 6.2 3.4 2.5 6 5.5 7.8 9.1 1.8 3.5 2.7 7.8 2.7 12.6v.3c0 5.3-1 10.1-3.1 14.2-2 4.1-4.9 7.7-8.5 10.6s-8 5.1-13.1 6.6-10.8 2.2-17 2.2zm-45.2-18c5.8 5.1 12.6 8.9 20.1 11.5 7.9 2.7 16.3 4.1 25.1 4.1 6 0 11.4-.7 16.2-2.2 4.8-1.4 8.9-3.5 12.3-6.2 3.4-2.7 6-6 7.9-9.8s2.8-8.2 2.8-13.2v-.3c0-4.4-.8-8.3-2.4-11.5s-4-6-7.1-8.2c-3.1-2.3-7-4.3-11.5-5.9-4.6-1.6-9.7-3.1-15.3-4.3-3.5-.8-6.4-1.5-8.6-2.2-2.3-.7-4.2-1.5-5.5-2.2-1.5-.8-2.5-1.7-3.2-2.8-.6-1-1-2.3-1-3.6v-.3c0-2.2 1-4.1 3-5.5 1.9-1.4 4.6-2.1 8.2-2.1 4.6 0 9.4.9 14.3 2.6 4.6 1.6 9.1 3.9 13.4 6.8l12.5-17.7c-5.1-4-10.8-7-17-9.1-6.6-2.2-14.2-3.3-22.6-3.3-5.8 0-11.1.8-15.8 2.3-4.6 1.5-8.6 3.7-11.8 6.4s-5.7 6-7.4 9.7-2.5 7.9-2.5 12.3v.3c0 4.9.9 9 2.8 12.3 1.9 3.3 4.4 6.1 7.6 8.3 3.3 2.3 7.2 4.1 11.6 5.6 4.5 1.5 9.5 2.8 14.8 4 3.5.8 6.3 1.5 8.5 2.2s4 1.5 5.4 2.3c1.5.9 2.5 1.8 3.1 2.8s.9 2.1.9 3.4v.3c0 2.6-1.2 4.7-3.5 6.1-2.1 1.3-5.2 2-9.1 2-11.5 0-22.3-3.9-32.3-11.5L572 247.9z" class="st0"></path><path d="M-43.8 207.2H736V447H-43.8z" style="fill:none"></path><path d="M5.6 285.1h685.1v65.2H5.6z" class="st0"></path><linearGradient id="SVGID_00000058589222808933249340000017132573403093146779_" x1="348" x2="348" y1="698.979" y2="764.513" gradientTransform="translate(0 -416)" gradientUnits="userSpaceOnUse"><stop offset="0" style="stop-color:#19314a"></stop><stop offset=".543" style="stop-color:#0086c5"></stop><stop offset="1" style="stop-color:#152c42"></stop></linearGradient><path d="M9.5 288h677v59.2H9.5z" style="fill:url(#SVGID_00000058589222808933249340000017132573403093146779_)"></path><path d="M19.3 298.3H48v7.5H27.6v8.1h18v7.5h-18V336h-8.3v-37.7zM72.9 336.6c-2.9 0-5.6-.5-8-1.5s-4.5-2.4-6.3-4.1-3.2-3.8-4.1-6.1c-1-2.3-1.5-4.9-1.5-7.6v-.1c0-2.7.5-5.2 1.5-7.6 1-2.3 2.4-4.4 4.2-6.2 1.8-1.8 3.9-3.2 6.3-4.2 2.5-1 5.1-1.5 8-1.5s5.6.5 8 1.5 4.5 2.4 6.3 4.1 3.2 3.8 4.1 6.1c1 2.3 1.5 4.9 1.5 7.6v.1c0 2.7-.5 5.2-1.5 7.6-1 2.3-2.4 4.4-4.2 6.2-1.8 1.8-3.9 3.2-6.3 4.2s-5.1 1.5-8 1.5zm.1-7.6c1.6 0 3.2-.3 4.6-.9s2.6-1.5 3.6-2.5c1-1.1 1.8-2.3 2.3-3.7.6-1.4.8-2.9.8-4.5v-.1c0-1.6-.3-3.1-.8-4.6-.6-1.4-1.3-2.7-2.4-3.8-1-1.1-2.2-1.9-3.6-2.6-1.4-.6-2.9-.9-4.6-.9s-3.2.3-4.6.9-2.6 1.5-3.5 2.5c-1 1.1-1.8 2.3-2.3 3.7-.6 1.4-.8 2.9-.8 4.5v.1c0 1.6.3 3.1.8 4.6.6 1.4 1.3 2.7 2.4 3.8 1 1.1 2.2 1.9 3.6 2.6 1.3.6 2.8.9 4.5.9zM118 336.6c-2.8 0-5.3-.5-7.7-1.5s-4.4-2.4-6.1-4.1-3.1-3.8-4-6.2c-1-2.4-1.5-4.9-1.5-7.6v-.1c0-2.7.5-5.2 1.5-7.6 1-2.3 2.3-4.4 4-6.2 1.7-1.8 3.8-3.2 6.2-4.2 2.4-1 5.1-1.5 8-1.5 1.8 0 3.4.1 4.8.4 1.5.3 2.8.7 4 1.2 1.2.5 2.3 1.1 3.3 1.8s1.9 1.5 2.8 2.4l-5.3 6.1c-1.5-1.3-3-2.4-4.5-3.1-1.5-.8-3.2-1.1-5.1-1.1-1.6 0-3 .3-4.4.9-1.3.6-2.5 1.5-3.5 2.5-1 1.1-1.7 2.3-2.3 3.7-.5 1.4-.8 2.9-.8 4.5v.1c0 1.6.3 3.1.8 4.6.5 1.4 1.3 2.7 2.2 3.8.9 1.1 2.1 1.9 3.4 2.6 1.3.6 2.8.9 4.4.9 2.2 0 4-.4 5.5-1.2 1.5-.8 3-1.9 4.4-3.2l5.3 5.3c-1 1-2 2-3 2.8s-2.2 1.5-3.4 2.1c-1.2.6-2.6 1-4.1 1.3-1.5.5-3.1.6-4.9.6zM155.7 336.6c-5.1 0-9-1.4-11.9-4.2-2.9-2.8-4.4-7-4.4-12.5v-21.5h8.3v21.3c0 3.1.7 5.4 2.2 7 1.4 1.6 3.4 2.3 6 2.3 2.5 0 4.5-.8 6-2.3 1.4-1.5 2.2-3.8 2.2-6.8v-21.6h8.3v21.2c0 2.9-.4 5.4-1.2 7.5s-1.9 3.9-3.3 5.3-3.2 2.5-5.2 3.2c-2.2.7-4.5 1.1-7 1.1zM194.1 336.5c-2.9 0-5.7-.5-8.4-1.5-2.8-1-5.3-2.5-7.5-4.5l4.9-5.9c1.7 1.4 3.5 2.5 5.3 3.3s3.8 1.2 5.9 1.2c1.7 0 3.1-.3 4-.9s1.4-1.5 1.4-2.6v-.1c0-.5-.1-1-.3-1.4s-.6-.8-1.1-1.2c-.6-.4-1.3-.7-2.3-1.1s-2.3-.7-3.9-1.1c-1.9-.5-3.6-1-5.2-1.6-1.5-.6-2.9-1.3-3.9-2.1-1.1-.8-1.9-1.9-2.5-3.1-.6-1.3-.9-2.8-.9-4.7v-.1c0-1.7.3-3.3 1-4.7.6-1.4 1.5-2.6 2.7-3.6s2.5-1.8 4.1-2.3 3.4-.8 5.3-.8c2.8 0 5.3.4 7.6 1.2 2.3.8 4.4 2 6.4 3.5l-4.3 6.2c-1.7-1.1-3.3-2.1-4.9-2.7-1.6-.7-3.2-1-4.8-1s-2.8.3-3.6.9-1.2 1.4-1.2 2.3v.1c0 .6.1 1.1.4 1.6.2.4.7.9 1.3 1.2.6.4 1.4.7 2.5 1s2.4.7 4 1.1c1.9.5 3.6 1.1 5.1 1.7s2.7 1.4 3.8 2.3c1 .9 1.8 1.9 2.3 3.1s.8 2.6.8 4.2v.1c0 1.9-.3 3.5-1 5s-1.6 2.7-2.8 3.7-2.7 1.7-4.3 2.3c-2 .8-3.8 1-5.9 1zM215.1 298.3h28.3v7.4h-20.2v7.6H241v7.4h-17.7v7.9h20.4v7.4h-28.6v-37.7zM251.1 298.3h14.7c2.9 0 5.6.5 8.1 1.4 2.5 1 4.6 2.3 6.3 4s3.1 3.7 4.1 5.9c1 2.3 1.5 4.7 1.5 7.4v.1c0 2.7-.5 5.1-1.5 7.4s-2.3 4.3-4.1 6-3.9 3-6.3 4c-2.5 1-5.2 1.5-8.1 1.5h-14.7v-37.7zm14.7 30.2c1.7 0 3.2-.3 4.6-.8s2.6-1.3 3.6-2.3 1.8-2.2 2.3-3.5c.6-1.4.8-2.9.8-4.6v-.1c0-1.7-.3-3.2-.8-4.6-.6-1.4-1.3-2.6-2.3-3.6s-2.2-1.8-3.6-2.3c-1.4-.6-2.9-.8-4.6-.8h-6.4v22.7h6.4v-.1zM323.8 336.5c-2.4 0-4.6-.4-6.6-1.3s-3.7-2-5.2-3.5c-1.4-1.5-2.6-3.2-3.4-5.1-.8-2-1.2-4-1.2-6.3v-.1c0-2.2.4-4.3 1.2-6.3.8-2 1.9-3.7 3.4-5.2s3.2-2.7 5.2-3.5c2-.9 4.2-1.3 6.6-1.3s4.6.4 6.6 1.3 3.7 2 5.2 3.5c1.4 1.5 2.6 3.2 3.4 5.1.8 2 1.2 4 1.2 6.3v.1c0 2.2-.4 4.3-1.2 6.3-.8 2-1.9 3.7-3.4 5.2s-3.2 2.7-5.2 3.5c-2 .9-4.2 1.3-6.6 1.3zm.1-5c1.5 0 3-.3 4.3-.9s2.4-1.4 3.3-2.4 1.6-2.2 2.2-3.5c.5-1.3.8-2.8.8-4.3v-.1c0-1.5-.3-3-.8-4.3-.5-1.4-1.2-2.5-2.2-3.5-.9-1-2.1-1.8-3.4-2.4s-2.7-.9-4.3-.9c-1.5 0-3 .3-4.3.9s-2.4 1.4-3.3 2.4-1.6 2.2-2.2 3.5c-.5 1.3-.8 2.8-.8 4.3v.1c0 1.5.3 3 .8 4.3.5 1.4 1.2 2.5 2.2 3.5.9 1 2.1 1.8 3.4 2.4s2.8.9 4.3.9zM346.9 304.6h5.1l16.8 21.7v-21.7h5.5V336h-4.6l-17.3-22.3V336h-5.5v-31.4zM407.7 306h-11.5v-7.6h31.2v7.6H416v30h-8.3v-30zM433.8 298.3h8.3v14.9h15.3v-14.9h8.3V336h-8.3v-15.1h-15.3V336h-8.3v-37.7zM474.7 298.3H503v7.4h-20.2v7.6h17.7v7.4h-17.7v7.9h20.4v7.4h-28.6v-37.7h.1zM526.9 298.3h28.7v7.5h-20.4v8.1h18v7.5h-18V336h-8.3v-37.7zM580.4 336.6c-2.9 0-5.6-.5-8-1.5s-4.5-2.4-6.3-4.1-3.2-3.8-4.1-6.1c-1-2.3-1.5-4.9-1.5-7.6v-.1c0-2.7.5-5.2 1.5-7.6 1-2.3 2.4-4.4 4.2-6.2 1.8-1.8 3.9-3.2 6.3-4.2 2.5-1 5.1-1.5 8-1.5s5.6.5 8 1.5 4.5 2.4 6.3 4.1 3.2 3.8 4.1 6.1c1 2.3 1.5 4.9 1.5 7.6v.1c0 2.7-.5 5.2-1.5 7.6-1 2.3-2.4 4.4-4.2 6.2-1.8 1.8-3.9 3.2-6.3 4.2s-5.1 1.5-8 1.5zm.1-7.6c1.6 0 3.2-.3 4.6-.9 1.4-.6 2.6-1.5 3.6-2.5 1-1.1 1.8-2.3 2.3-3.7.6-1.4.8-2.9.8-4.5v-.1c0-1.6-.3-3.1-.8-4.6-.6-1.4-1.3-2.7-2.4-3.8-1-1.1-2.2-1.9-3.6-2.6-1.4-.6-2.9-.9-4.6-.9-1.7 0-3.2.3-4.6.9-1.4.6-2.6 1.5-3.5 2.5-1 1.1-1.8 2.3-2.3 3.7-.6 1.4-.8 2.9-.8 4.5v.1c0 1.6.3 3.1.8 4.6.6 1.4 1.3 2.7 2.4 3.8 1 1.1 2.2 1.9 3.6 2.6 1.3.6 2.9.9 4.5.9zM607.9 298.3h17.2c4.8 0 8.4 1.3 11 3.8 2.2 2.2 3.2 5 3.2 8.6v.1c0 3-.7 5.5-2.2 7.4s-3.4 3.3-5.8 4.2l9.2 13.4h-9.7l-8.1-12h-6.5v12h-8.3v-37.5zm16.6 18.3c2 0 3.6-.5 4.7-1.5s1.6-2.3 1.6-3.9v-.1c0-1.8-.6-3.1-1.7-4-1.1-.9-2.7-1.3-4.8-1.3h-8.2v10.8h8.4zM655.5 306H644v-7.6h31.2v7.6h-11.5v30h-8.3l.1-30z" class="st0"></path><path d="M684.2 121.3c-1.6-21.1-21.2-29.1-31.7-27.3 8.8-5 20.8-28.3 2.6-46.1-13.9-13.7-32.3-8.6-38.8-2.6 3.5-11.3-2.1-35.1-25-38.2-20.9-3-30 11.9-32.6 18.8-4-9.8-13.5-20.6-31.4-18.8-22.7 2.1-29.8 24.1-26.4 37-9-6-24.9-9.2-37.9 2.9-17.9 16.8-8.1 40.7 1.5 46.4-10.6-1-27.4 6.1-30.8 24.7-4.2 23 13.7 36.5 30.8 36.4h190c19.9.1 31.2-17.1 29.7-33.2z" style="fill:#231f20;stroke:#231f20;stroke-width:7.4398"></path><path d="M683.3 117.3C681.6 96.2 662 88.1 651.5 90c8.8-5 20.8-28.3 2.6-46.1-13.9-13.7-32.3-8.6-38.8-2.6 3.5-11.3-2.1-35.1-25-38.2-20.9-3-30 11.9-32.6 18.8-4-9.8-13.5-20.6-31.4-18.8-22.7 2.1-29.8 24.1-26.4 37-9-6-24.9-9.2-37.9 2.9-17.9 16.8-8.1 40.7 1.5 46.4-10.6-1-27.4 6.1-30.8 24.7-4.2 23 13.7 36.5 30.8 36.4h190c20 0 31.3-17.1 29.8-33.2zM465.4 46.5c13.9-12.2 33.4-7.6 41.4 11.2l35.2 79.9-72.2-49.3c-18-12.4-14.8-33-4.4-41.8zm-2.1 99.5c-17.1.1-30.6-15.6-25.3-34.6 6.4-16.7 24.5-23 39.6-12.6l67.8 47.3h-82.1zm91.6-107.4L542 128.1 505.9 43c-8.8-20.7 9.8-35.1 21.4-35.2 13.6-1.7 30.7 8.6 27.6 30.8zm96.4 9.1c9.1 9.6 12.3 28.4-4.7 39.9l-72.2 49.6 34.1-79c10.7-24.6 34-19.8 42.8-10.5zm-79.9-10.6c-.4-1.8-4-1.8-4.1-1.8h-6.8c-.8-20.1 14.9-28.7 27.6-27.9 13.7.7 29.6 16.6 21.8 35.6L574 128.1l-11.5-76.9c-1.8-11.8 6.3-12 8.9-14.1zM654.2 146h-83.4l67.8-47.3c16.3-11.4 34.4-.9 38.8 13.5 5.2 16.3-6.1 33.9-23.2 33.8z" class="st0"></path><path d="M654.4 146.3H571L638.8 99c16.3-11.4 34.4-.9 38.8 13.5 5.2 16.3-6.1 33.9-23.2 33.8z" style="fill:#10b04b"></path><path d="m646.7 87.9-72.2 49.6 34.1-79c10.8-24.7 34.1-19.8 42.9-10.6 9 9.7 12.2 28.5-4.8 40z" style="fill:#1888c9"></path><path d="m610 43.3-35.8 85.2-11.5-76.9c-1.8-11.8 6.2-12 8.8-14.1-.4-1.8-4-1.8-4.1-1.8h-6.8c-.8-20.1 14.9-28.7 27.6-27.9 13.8.6 29.7 16.5 21.8 35.5z" style="fill:#6360aa"></path><path d="m555.1 38.9-12.9 89.6-36.1-85.2c-8.8-20.7 9.8-35.1 21.4-35.2 13.6-1.7 30.7 8.6 27.6 30.8z" style="fill:#cc2036"></path><path d="m506.9 57.9 35.2 79.9-72.3-49.3c-17.9-12.3-14.8-32.9-4.4-41.7 14-12.2 33.6-7.6 41.5 11.1z" style="fill:#f27024"></path><path d="M438.2 111.7c6.4-16.7 24.5-23 39.7-12.6l67.8 47.3h-82.2c-17.1 0-30.6-15.7-25.3-34.7z" style="fill:#fab816"></path></svg>