<svg xmlns:dc="http://purl.org/dc/elements/1.1/" xmlns:cc="http://creativecommons.org/ns#" xmlns:rdf="http://www.w3.org/1999/02/22-rdf-syntax-ns#" xmlns:svg="http://www.w3.org/2000/svg" xmlns="http://www.w3.org/2000/svg" id="Layer_1" data-name="Layer 1" viewBox="0 0 400.01492 69.099998" width="400.01492" height="69.099998"><metadata></metadata><defs id="defs4"><style id="style2">.cls-1{fill:#162c55;}.cls-2{fill:#fdb81b;}</style></defs><path class="cls-1" d="m 10.69,23.72 v 21 h 4.17 V 50.1 H 0 v -5.35 h 4.17 v -21 H 0 V 18.4 h 14.86 v 5.35 z" id="path6"></path><path class="cls-1" d="M 51,23.72 H 47.2 V 50.1 H 40.45 L 28.54,28.29 v 16.44 h 4.35 V 50.1 H 18.3 v -5.35 h 4 v -21 h -4 V 18.4 H 29.44 L 41,39.43 V 23.72 H 36.6 V 18.37 H 51 Z" id="path8"></path><path class="cls-1" d="m 54.08,44.73 h 4 v -21 h -4 v -5.35 h 21.34 q 6.33,0 6.34,6.34 v 19 q 0,6.33 -6.34,6.34 H 54.08 Z M 64.59,44.1 h 9.74 a 1,1 0 0 0 0.7,-0.2 1,1 0 0 0 0.2,-0.71 V 25.26 a 0.75,0.75 0 0 0 -0.9,-0.91 h -9.74 z" id="path10"></path><path class="cls-1" d="m 96.79,23.72 v 21 H 101 V 50.1 H 86.1 v -5.35 h 4.17 v -21 H 86.1 V 18.4 H 101 v 5.35 z" id="path12"></path><path class="cls-1" d="M 137.38,44.73 V 50.1 H 123.7 v -5.35 h 3.35 l -1.31,-4.16 h -10.6 l -1.31,4.16 h 3.26 v 5.35 h -13.41 v -5.35 h 3.44 l 7.2,-21 H 110.7 V 18.4 h 14.22 l 9,26.36 z M 124,35.1 120.47,23.96 116.86,35.1 Z" id="path14"></path><path class="cls-1" d="m 172.62,23.72 h -3.81 V 50.1 h -6.75 L 150.15,28.31 v 16.44 h 4.35 v 5.35 h -14.59 v -5.35 h 4 v -21 h -4 V 18.4 h 11.15 l 11.5,21.06 V 23.72 h -4.35 v -5.35 h 14.41 z" id="path16"></path><path class="cls-1" d="m 206.41,44.73 v 5.37 h -13.68 v -5.35 h 3.35 l -1.31,-4.16 h -10.6 l -1.31,4.16 h 3.26 v 5.35 h -13.41 v -5.35 h 3.44 l 7.21,-21 h -3.63 V 18.4 H 194 l 9,26.36 z M 193,35.1 189.47,23.96 185.89,35.1 Z" id="path18"></path><path class="cls-1" d="m 276.8,29.51 v -5.7 H 272 v 20.92 h 4.89 v 5.37 h -16.3 v -5.35 h 4.89 V 23.81 h -4.85 v 5.7 h -5.71 V 18.37 h 27.64 v 11.14 z" id="path20"></path><path class="cls-1" d="m 296.46,23.72 v 21 h 4.16 v 5.38 h -14.85 v -5.35 h 4.16 v -21 h -4.16 V 18.4 h 14.85 v 5.35 z" id="path22"></path><path class="cls-1" d="m 339.4,23.72 v 21 h 4 V 50.1 H 328.89 V 44.75 H 333 v -15 l -7,15.12 h -4.8 l -6.93,-15.18 v 15 h 4.08 v 5.41 h -14.28 v -5.35 h 4 v -21 h -4 V 18.4 h 11.23 l 8.52,18.57 8.51,-18.57 h 11.05 v 5.35 z" id="path24"></path><path class="cls-1" d="M 366.26,28.15 V 23.9 h -9.11 v 7.2 h 11.1 v 5.89 h -11.1 v 7.61 h 9.11 V 40.34 H 372 v 9.76 h -25.36 v -5.35 h 4 v -21 h -4 V 18.4 H 372 v 9.78 z" id="path26"></path><path class="cls-1" d="m 393.12,28.34 v -3.17 a 1,1 0 0 0 -0.21,-0.71 1,1 0 0 0 -0.7,-0.2 h -8.06 a 0.75,0.75 0 0 0 -0.91,0.91 v 3.44 a 1.44,1.44 0 0 0 0.32,1 2.47,2.47 0 0 0 1.22,0.5 l 8.7,1.81 a 10.55,10.55 0 0 1 4.87,2.15 5.55,5.55 0 0 1 1.65,4.37 v 5.26 q 0,6.33 -6.34,6.34 H 383 q -6.35,0 -6.34,-6.34 v -4 H 383 v 3.53 a 0.75,0.75 0 0 0 0.91,0.91 h 8.69 a 1,1 0 0 0 0.7,-0.2 1,1 0 0 0 0.21,-0.71 v -3.8 a 1.44,1.44 0 0 0 -0.32,-1 2.47,2.47 0 0 0 -1.22,-0.5 l -8.7,-1.81 a 10.55,10.55 0 0 1 -4.87,-2.15 5.55,5.55 0 0 1 -1.65,-4.37 v -4.9 q 0,-6.35 6.34,-6.34 h 10.06 q 6.33,0 6.34,6.34 v 3.63 z" id="path28"></path><path class="cls-2" d="m 250,44.62 a 1.43,1.43 0 0 1 -0.26,-0.7 V 0.1 h -38.55 q 0,17.61 0,35.22 c 0,1.77 0,3.53 0,5.29 -0.31,0.73 -0.7,1.43 -1,2.16 a 1.62,1.62 0 0 0 -0.12,0.43 c -0.18,1 -0.37,2.06 -0.55,3.09 a 1.19,1.19 0 0 0 0.06,0.62 c 0.19,0.72 0.36,1.44 0.55,2.15 0.14,0.37 -0.11,0.72 -0.21,1.07 a 2.79,2.79 0 0 1 -0.46,1 l -1.61,1.66 a 0.64,0.64 0 0 0 -0.22,0.38 c -0.21,1.24 -0.38,2.49 -0.59,3.73 -0.29,0.47 -0.84,0.75 -1.18,1.19 -0.11,1.11 -0.08,2.23 -0.16,3.34 -0.06,2.17 -0.2,4.33 -0.25,6.49 2.41,0.14 4.81,0.29 7.22,0.41 0.24,-0.65 0.51,-1.29 0.75,-1.94 a 1.47,1.47 0 0 1 0.77,0.32 c 0.61,0.64 1.19,1.3 1.8,1.94 0.16,0.15 0.27,0.36 0.47,0.45 1.75,-0.49 3.48,-1 5.22,-1.53 a 4.41,4.41 0 0 1 1.15,0 c 0.8,0 1.61,0 2.42,0.06 0.87,-1.06 1.69,-2.16 2.57,-3.21 a 15.3,15.3 0 0 1 1.59,-0.74 c 0.21,0.41 0.45,0.82 0.66,1.23 a 8.12,8.12 0 0 0 1.31,-0.2 c 2,-0.37 4,-0.76 6,-1.12 0.18,-0.89 0.34,-1.77 0.53,-2.65 0.62,0 1.25,-0.09 1.86,-0.15 1.51,-1.9 2.95,-3.85 4.43,-5.77 a 3.36,3.36 0 0 1 0.52,-0.61 6,6 0 0 1 0.85,0.13 7.13,7.13 0 0 0 0.49,-0.63 l 5.11,-7 C 250.69,46.1 250.33,45.35 250,44.62 Z m -2.72,4.48 A 9.68,9.68 0 0 1 246,49.36 v 0.19 c 0.2,0.26 0.4,0.53 0.61,0.79 -0.57,0.73 -1.18,1.43 -1.77,2.14 -0.07,0.15 -0.24,0.11 -0.37,0.09 l -2.54,-0.37 a 2.62,2.62 0 0 0 -0.73,0.32 c 0.39,0.5 0.76,1 1.16,1.52 0.06,0.09 0.17,0.21 0.08,0.33 L 239,58.83 a 1.67,1.67 0 0 1 -0.25,0.28 c -0.36,0.05 -0.73,0 -1.09,0.08 -0.36,0.08 -0.88,0 -1.3,0.15 -0.13,0.9 -0.38,1.78 -0.5,2.69 -0.73,0.22 -1.5,0.3 -2.24,0.46 -0.9,0.16 -1.79,0.35 -2.69,0.5 -0.29,-0.52 -0.56,-1.06 -0.87,-1.57 -0.9,0.34 -1.75,0.8 -2.63,1.2 a 3.63,3.63 0 0 0 -0.83,0.43 c -0.76,0.93 -1.48,1.91 -2.26,2.82 -0.94,-0.06 -1.89,-0.1 -2.83,-0.07 -1.22,0.34 -2.43,0.74 -3.66,1.07 h -0.07 c -0.3,0.07 -0.6,0.16 -0.9,0.25 -0.66,-0.71 -1.29,-1.44 -2,-2.11 -0.85,-0.26 -1.7,-0.56 -2.57,-0.75 -0.29,0.75 -0.58,1.51 -0.89,2.25 -0.71,0 -1.42,-0.11 -2.14,-0.12 -0.72,-0.01 -1.45,0 -2.16,-0.16 a 11.33,11.33 0 0 1 0.07,-1.3 c 0,-0.69 0,-1.37 0.06,-2.06 0.06,-0.69 0,-1.64 0.13,-2.46 0,-0.54 0,-1.09 0.05,-1.63 0.37,-0.34 0.76,-0.66 1.12,-1 0,-0.35 0.1,-0.69 0.13,-1 v -0.07 c 0.1,-1 0.3,-1.94 0.43,-2.91 0.54,-0.61 1.14,-1.18 1.7,-1.77 a 1.43,1.43 0 0 0 0.25,-0.43 c 0.22,-0.66 0.46,-1.33 0.7,-2 0.13,-0.38 -0.08,-0.77 -0.15,-1.15 -0.16,-0.68 -0.37,-1.36 -0.51,-2.05 0.08,-0.71 0.25,-1.41 0.36,-2.12 a 4.56,4.56 0 0 1 0.31,-1.22 c 0.31,-0.62 0.6,-1.25 0.91,-1.87 a 1,1 0 0 0 0.13,-0.45 c 0,-13 0,-26 0,-39 H 248 v 33 c 0,3.24 0,6.48 0,9.72 0.29,0.75 0.77,1.43 1.05,2.19 -0.56,0.87 -1.19,1.66 -1.77,2.45 z" id="path30"></path><path class="cls-1" d="m 247,43.34 c 0,-0.77 0,-20.32 0,-21 -3,-0.51 -6,-1 -9,-1.5 -0.24,0 -0.65,0 -0.66,-0.37 a 0.35,0.35 0 0 1 0.45,-0.42 l 9.21,1.53 c 0,-0.09 0,-0.26 0,-0.34 0,-1.25 0.08,-6.6 0,-7.11 -0.64,0 -6.26,0.92 -8.43,1.25 -0.2,0.05 -0.36,-0.13 -0.43,-0.29 a 0.41,0.41 0 0 1 0.44,-0.46 l 8.31,-1.26 c 0.15,0 0.19,-0.18 0.16,-0.31 0,-1 0,-9.39 0,-9.81 -1,0.69 -8.75,6.31 -10.75,7.77 -0.16,0.15 -0.4,0.08 -0.6,0.08 0,-0.16 -0.17,-0.36 0,-0.51 0.17,-0.15 10.6,-7.74 10.68,-7.82 -5.15,0 -10.31,0 -15.46,0 0,2 0,4 0,6 a 1,1 0 0 1 -0.11,0.44 c -0.18,0 -0.42,0.07 -0.55,-0.1 a 1,1 0 0 1 -0.09,-0.53 c 0,-1.93 0,-3.86 0,-5.79 -2.74,0 -12.94,0 -15.29,0 0.24,0.26 9.45,7 10.42,7.7 0.18,0.1 0.17,0.32 0.14,0.49 a 0.46,0.46 0 0 1 -0.6,0.1 c -3.37,-2.47 -10.55,-7.79 -10.83,-7.89 0,3.38 0,6.76 0,10.14 0.71,0.15 6.27,1 8.32,1.27 0.23,0.07 0.58,0 0.67,0.31 0.09,0.31 0,0.28 -0.06,0.42 l -0.33,0.07 c -0.83,-0.11 -6.57,-1 -8.59,-1.31 0,2.5 0,5 0,7.51 0.08,0 6.24,-1 9.2,-1.53 a 0.81,0.81 0 0 1 0.5,0.1 c 0,0.16 0,0.32 0,0.47 0,0.15 -0.17,0.11 -0.26,0.15 -3.15,0.54 -6.31,1 -9.46,1.59 v 18.19 a 1.78,1.78 0 0 1 -0.09,0.83 c -0.29,0.61 -0.59,1.21 -0.88,1.81 a 5.85,5.85 0 0 0 -0.48,1.89 3.64,3.64 0 0 0 -0.12,1.73 c 0.19,0.73 0.37,1.47 0.56,2.2 a 1,1 0 0 1 0,0.67 c -0.29,0.82 -0.58,1.63 -0.86,2.45 a 1,1 0 0 1 -0.24,0.41 c -0.53,0.59 -1.1,1.14 -1.64,1.72 -0.2,1.34 -0.44,2.67 -0.6,4 -0.31,0.4 -0.76,0.65 -1.08,1 -0.12,0.91 0,1.85 -0.14,2.77 0,1.08 -0.09,2.16 -0.12,3.24 a 50.44,50.44 0 0 0 2.58,0.17 c 0.34,-0.79 0.64,-1.61 1,-2.41 a 2,2 0 0 1 0.64,0.14 c 1,0.31 2,0.6 3,0.9 0.19,0 0.3,0.21 0.43,0.34 0.45,0.53 1,1 1.39,1.54 1.38,-0.33 2.73,-0.81 4.1,-1.18 0.88,-0.06 1.77,0 2.65,0 0.56,-0.73 1.15,-1.45 1.72,-2.17 0.18,-0.23 0.34,-0.5 0.62,-0.6 1.42,-0.65 2.82,-1.33 4.24,-2 0.32,0.59 0.65,1.18 1,1.78 1.18,-0.21 2.37,-0.41 3.54,-0.69 0.14,-0.92 0.36,-1.84 0.54,-2.76 a 1.8,1.8 0 0 1 0.77,-0.11 c 0.45,0 0.89,-0.12 1.34,-0.12 0.27,0 0.61,0 0.76,-0.24 0.4,-0.56 0.88,-1.07 1.23,-1.66 l 0.09,0.11 v -0.19 c 0.47,-0.65 1,-1.26 1.44,-1.9 -0.25,-0.36 -0.51,-0.7 -0.77,-1 a 1.92,1.92 0 0 1 -0.32,-1.36 c 0.48,-0.18 0.93,-0.45 1.41,-0.65 0.18,-0.1 0.38,0 0.57,0 0.73,0.13 1.47,0.21 2.2,0.32 0.29,-0.4 0.64,-0.75 0.93,-1.14 v -0.12 c -0.32,-0.51 -0.74,-0.94 -1,-1.46 0.82,-0.18 1.61,-0.43 2.43,-0.57 0.47,-0.53 0.84,-1.13 1.28,-1.68 -0.27,-0.57 -0.57,-1.12 -0.84,-1.69 A 5.82,5.82 0 0 1 247,43.34 Z m -25.8,2.89 v 0.07 c 0.1,0.37 0.23,0.72 0.33,1.08 -0.66,-0.38 -1.22,-0.91 -1.87,-1.3 a 6.58,6.58 0 0 1 -0.94,0.61 h 0.11 c -0.36,0.19 -0.66,0.46 -1,0.68 0.13,-0.75 0.53,-1.44 0.62,-2.19 -0.57,-0.48 -1.21,-0.87 -1.79,-1.34 H 219 c 0.29,-0.73 0.52,-1.49 0.74,-2.24 0.28,0.72 0.45,1.49 0.76,2.2 0.74,0.1 1.51,0 2.25,0.05 -0.58,0.47 -1.22,0.87 -1.8,1.34 0.05,0.37 0.18,0.7 0.26,1.04 z m 12.31,-31.54 a 3.27,3.27 0 0 1 1,-1.42 4.4,4.4 0 0 0 -0.1,1.25 19.3,19.3 0 0 1 0.48,2 4.25,4.25 0 0 1 -0.26,1 l 1,-0.58 a 2.94,2.94 0 0 1 0,1.56 11.3,11.3 0 0 1 -1.19,1.81 h -1.84 a 9,9 0 0 0 0.84,-2.57 c 0.1,-1.05 -0.09,-2.06 0.08,-3.05 z m -4.23,-1.76 a 7.12,7.12 0 0 0 0.36,0.86 5.6,5.6 0 0 1 1.08,-2.36 4.25,4.25 0 0 1 2.21,-1.19 13.83,13.83 0 0 0 -0.42,4.44 18.05,18.05 0 0 1 0.13,2.44 11.15,11.15 0 0 1 -0.89,3.14 h -3.32 a 6.28,6.28 0 0 0 -0.32,-1.78 4.51,4.51 0 0 1 -0.6,-2 5.84,5.84 0 0 1 1.78,-3.55 z m -3.88,2.26 a 3.45,3.45 0 0 1 1.29,-0.83 5.5,5.5 0 0 0 -0.19,2.28 c 0.12,1.29 1.13,2.3 1.14,3.61 h -1.21 c -0.36,-1 -1.34,-1.66 -1.59,-2.72 a 2.58,2.58 0 0 1 0.57,-2.34 z M 231,57.1 c 0,0.67 -1.2,0.66 -1.22,0 -0.23,-3.11 -0.4,-6.22 -0.62,-9.32 l 1.23,-0.81 1.23,0.81 c -0.17,3.14 -0.35,6.25 -0.62,9.32 z m 1.41,-9.71 -2,-1.46 -2,1.46 c 0.25,-0.79 0.51,-1.57 0.77,-2.36 l -2,-1.47 h 2.48 c 0.26,-0.79 0.51,-1.58 0.77,-2.36 0.26,0.78 0.52,1.57 0.77,2.36 h 2.49 l -2,1.47 c 0.24,0.82 0.5,1.6 0.76,2.39 z m -4.68,-16.81 c 0.08,-0.4 0.11,-1.14 0.7,-1 1.35,0 2.71,0 4.06,0 0.49,0 0.47,0.68 0.56,1 -1.73,0.08 -3.51,0.09 -5.28,0.03 z m 4.89,0.75 c -0.26,3.91 -0.47,7.83 -0.75,11.75 a 1,1 0 0 1 -0.42,-0.53 c -0.36,-0.91 -0.69,-1.82 -1.05,-2.73 l -1.07,2.76 a 1,1 0 0 1 -0.41,0.5 c -0.29,-3.91 -0.5,-7.83 -0.75,-11.75 z m -0.07,-2.46 q -2.16,0 -4.32,0 a 9.84,9.84 0 0 0 -3,-6 h 10.23 a 9.88,9.88 0 0 0 -2.87,6.03 z m -8.41,-6.77 0.64,-1.07 h 11.31 l 0.64,1.07 z m 18.6,24.74 q 0.1,0.28 0.18,0.57 c -0.66,-0.39 -1.24,-0.9 -1.88,-1.32 -0.59,0.46 -1.21,0.9 -1.82,1.33 0.15,-0.75 0.52,-1.46 0.64,-2.22 -0.62,-0.42 -1.21,-0.87 -1.81,-1.3 0.75,0 1.5,0 2.25,0 0.31,-0.71 0.49,-1.47 0.74,-2.2 a 7.48,7.48 0 0 1 0.36,1 c 0.07,0.2 0.13,0.39 0.18,0.59 v 0.08 c 0.05,0.18 0,0.44 0.24,0.51 0.73,0 1.45,0 2.18,0 -0.58,0.47 -1.19,0.91 -1.81,1.32 0.18,0.53 0.4,1.06 0.55,1.61 z" id="path32"></path><path class="cls-1" d="m 157.7,0.04 v 4.64 h -2.16 V 2.1 h -2.67 v 10 h 2.21 v 2 h -6.85 v -2 h 2.23 v -10 h -2.68 v 2.59 h -2.15 V 0.05 Z" id="path34"></path><path class="cls-1" d="M 175.57,2.03 V 12.1 h 1.85 v 2 h -6.1 v -2 h 1.83 V 7.95 h -5.69 v 4.15 h 1.83 v 2 h -6.09 v -2 h 1.85 V 2 H 163.2 V 0 h 6.09 v 2 h -1.83 v 3.76 h 5.69 V 2 h -1.83 V 0 h 6.1 v 2 z" id="path36"></path><path class="cls-1" d="M 194.1,0.04 V 4.1 H 192 v -2 h -4.69 v 3.76 h 5.25 v 2.17 h -5.25 v 4 H 192 v -2 h 2.15 V 14.1 H 183 v -2 h 1.85 V 2 H 183 V 0 Z" id="path38"></path></svg>