<svg xmlns="http://www.w3.org/2000/svg" xml:space="preserve" width="912.974" height="377.609" fill-rule="evenodd" clip-rule="evenodd" viewBox="0 0 951015.26 393342.63"><path d="M0 148174.587h111657l-16386 23137H15756zm40363 61865h30932l-7205 108897c-641 9697-15897 9451-16507 242zm48140-29172-16385 23136H38019l-15755-23136z"></path><path fill="red" d="M47556 142809.587c11323-18469 36444-28813 45014-51966 19482 24029 435 37551-10228 51966zM65613-.413c20433 29418-29912 45603-30434 79468-35388-47187 13668-43607 30434-79468zm4533 27467c75799 52589-26022 66544-32370 115343H17523c-5393-8047-9732-17347-4442-31671 11445-30978 65795-40189 57065-83672z"></path><path d="M120905 175771.587v-4830h32831v6016l-1186-36-11669-344v32007h-7120v-32007l-11670 344-1186 36zm57923 32813h-5541v-15820c0-880-89-1654-265-2318-165-625-409-1161-733-1605-262-363-599-671-1008-920-432-264-954-468-1562-611-277-64-569-108-874-130-313-23-643-23-986 1h-17c-294 14-575 51-842 109v1c-249 54-488 130-710 225-462 198-932 505-1404 915-512 444-1025 1000-1537 1664l2 2c-481 646-843 1299-1084 1955-232 633-353 1268-362 1903h5v14629h-6696v-38835h6605l58 1096c9 169 16 993 21 2467 7 2315 12 4414 12 6089h-5l17 5639c251-209 515-409 794-604l-1-2c617-435 1217-803 1799-1101 593-305 1174-541 1739-706v1c872-275 1744-464 2609-560 861-97 1734-108 2618-30v-1c718 42 1450 196 2191 456 719 252 1449 608 2187 1064l9 4c666 420 1263 925 1787 1512 523 586 971 1250 1339 1991 333 663 584 1444 749 2339 159 864 240 1822 240 2872v16309zm11104-25722c1662-650 3499-972 5506-963h9c1880-9 3623 315 5227 972 1606 658 3064 1646 4371 2963 1298 1288 2308 2710 3029 4263 720 1556 1150 3239 1290 5047l96 1240h-21046c22 208 49 421 79 637 204 1220 556 2292 1051 3214 484 901 1109 1662 1872 2281v-1c800 627 1672 1108 2611 1440 954 338 1984 528 3081 570 1429 46 2745-80 3939-379 1171-291 2228-753 3170-1380l987-658 627 1009 1275 2051 621 999-1013 601c-1630 968-3400 1655-5305 2061-1889 401-3907 524-6048 368h-9c-1988-161-3812-593-5468-1296h-5c-1664-706-3153-1686-4461-2939-1317-1267-2306-2688-2967-4260-659-1573-991-3291-991-5149 0-1907 332-3674 993-5296 662-1623 1653-3097 2974-4418l5-5c1320-1323 2821-2315 4500-2972zm6971 4037c-709-263-1467-397-2274-397-90 0-183 4-275 10-146 9-296 22-443 36-693 94-1332 292-1916 594-592 305-1129 719-1611 1239l-13 18c-477 496-872 1084-1183 1760l-2-1c-150 327-281 675-392 1045h12585c-184-398-391-772-618-1121-484-745-1071-1392-1759-1939l-19-14c-664-550-1358-962-2080-1230zM160547 324150.587h-19474v-55884h16c-30-2996-375-5687-1024-8045-608-2213-1501-4152-2663-5796-941-1285-2148-2381-3609-3269l4-7c-1518-920-3361-1641-5522-2145-974-229-1998-386-3054-462-1078-79-2206-77-3369 4h-95c-1040 51-2036 183-2982 386v2c-902 197-1729 456-2469 780l-81 32c-1590 657-3220 1713-4882 3151-1774 1533-3577 3505-5403 5900l-5-5c-1680 2236-2945 4511-3784 6813v16c-826 2257-1256 4550-1285 6855h16v51674H77329v-91865h23553v8734c890-742 1837-1461 2832-2157l-3-5c2132-1523 4220-2823 6256-3888 2074-1085 4071-1917 5983-2490v-2c3110-971 6223-1639 9335-1991 3047-344 6115-381 9208-106v-5c2566 150 5174 694 7812 1611 2552 888 5142 2144 7751 3757l33 16c2351 1485 4459 3267 6311 5341 1850 2071 3431 4415 4730 7034l-7 3c1198 2351 2085 5102 2659 8228 564 3060 844 6459 844 10174v57611zm87267-137179h19443v137179h-9134l-2134-622-8045-4959c-3947 2386-8089 4238-12422 5553-5132 1558-10530 2358-16171 2393l-16 16c-7037 0-13517-1165-19433-3484-5946-2330-11286-5830-16010-10482l-32-32c-4665-4702-8170-9925-10507-15656-2337-5733-3507-11957-3507-18661 0-6737 1193-12990 3574-18739l5 2c2371-5731 5915-10921 10615-15561l49-48c4663-4705 9945-8226 15838-10556 5849-2315 12320-3457 19392-3427h32c5639-32 11039 736 16185 2303 2853 869 5618 1979 8295 3329l-7-27168c-14-8570-39-14331-71-17270l-45-4110zm-22154 59224c-2862-1013-5902-1482-9102-1399l-94 16c-287 0-599 12-925 33l-1568 120c-3162 419-6010 1567-8523 3436-2615 1941-4929 4706-6933 8285l-7-5c-1998 3593-3320 7433-3958 11511-650 4136-610 8561 113 13258l9-2c796 4624 2132 8787 4000 12482 1840 3636 4210 6847 7104 9612l3-2c2933 2760 6008 4802 9214 6105 3133 1276 6418 1864 9842 1767v-3c1070-55 2145-171 3213-347v-2c1055-176 2090-407 3096-691l-2-7c1169-386 2290-814 3347-1276 1059-463 2099-973 3119-1521l-3-3c939-596 1774-1276 2492-2022 743-772 1411-1660 1993-2643l16-14c599-1003 1048-2076 1339-3199 294-1135 428-2344 404-3609l-16-79v-30405c-756-2697-1916-5225-3477-7573-1671-2520-3844-4871-6507-7051l-17-33c-2554-2129-5285-3715-8172-4739zm68358-52388c1855 781 3533 1933 5031 3447 1489 1445 2612 3081 3366 4901 765 1847 1151 3849 1151 5990 0 4254-1542 7925-4621 11004l-5-5c-1470 1538-3128 2687-4963 3454-1824 763-3812 1126-5939 1094v14c-2058 0-4028-400-5909-1196h-17c-1819-774-3509-1923-5048-3442l-49-48c-1496-1519-2626-3193-3382-5010-772-1843-1156-3803-1156-5865 0-2118 398-4120 1195-5997 779-1836 1935-3505 3466-5003l-7-7c1511-1512 3197-2656 5039-3421 1829-759 3792-1119 5868-1087v-14c2099 0 4096 398 5980 1191zm-13452 38542h19380v92746h-23458v-92746zm116692 294h9136v91507h-23620v-3325c-2689 1332-5458 2432-8311 3297-5132 1558-10531 2358-16171 2393l-16 16c-7038 0-13518-1165-19434-3484-5946-2330-11286-5830-16009-10482l-32-32c-4666-4702-8170-9925-10508-15656-2337-5733-3507-11957-3507-18661 0-6737 1193-12990 3574-18739l5 2c2372-5731 5916-10921 10616-15561l49-48c4662-4705 9945-8226 15838-10556 5849-2315 12320-3457 19391-3427h33c5639-32 11039 736 16185 2303 4383 1336 8558 3239 12523 5703l8251-4707zm-32775 13467c-2862-1048-5881-1552-9030-1510l-48 16-73 7v2c-184 30-404 81-637 141l-639 111-1343 116c-3084 439-5862 1579-8325 3408-2614 1941-4928 4706-6933 8285l-7-5c-1997 3593-3319 7433-3957 11511-650 4136-611 8561 113 13258l9-2c795 4624 2132 8787 3999 12482 1841 3636 4210 6847 7105 9612l2-2c2934 2760 6008 4802 9215 6105 3133 1276 6418 1864 9841 1767v-3c1071-55 2146-171 3214-347v-2c1054-176 2090-407 3095-691l-2-7c1170-386 2291-814 3348-1276 1058-463 2099-973 3118-1521l-2-3c938-596 1773-1276 2492-2022 742-772 1410-1660 1993-2643l16-14c599-1003 1047-2076 1339-3199 293-1135 427-2344 404-3609l-16-79v-30354c-786-2730-1965-5266-3535-7608-1687-2522-3874-4878-6549-7067l-32-33c-2583-2168-5315-3777-8175-4824zm130348 78040h-19475v-55884h16c-30-2996-375-5687-1024-8045-608-2213-1501-4152-2664-5796-941-1285-2147-2381-3608-3269l5-7c-1519-920-3362-1641-5524-2145-973-229-1997-386-3054-462-1077-79-2205-77-3368 4h-95c-1040 51-2036 183-2982 386v2c-902 197-1729 456-2469 780l-81 32c-1590 657-3220 1713-4882 3151-1773 1533-3577 3505-5403 5900l-5-5c-1680 2236-2945 4511-3784 6813v16c-826 2257-1255 4550-1286 6855h17v51674h-23553v-91865h23553v8734c890-742 1838-1461 2832-2157l-3-5c2132-1523 4219-2823 6256-3888 2074-1085 4071-1917 5983-2490v-2c3109-971 6223-1639 9335-1991 3047-344 6115-381 9208-106v-5c2566 150 5174 694 7812 1611 2552 888 5141 2144 7752 3757l32 16c2351 1485 4459 3267 6311 5341 1849 2071 3431 4415 4730 7034l-7 3c1198 2351 2086 5102 2659 8228 564 3060 843 6459 843 10174v57611zm97769-91507h9136v91507h-23620v-3325c-2688 1332-5458 2432-8311 3297-5132 1558-10530 2358-16171 2393l-16 16c-7037 0-13517-1165-19433-3484-5946-2330-11287-5830-16010-10482l-32-32c-4665-4702-8170-9925-10507-15656-2337-5733-3507-11957-3507-18661 0-6737 1192-12990 3574-18739l4 2c2372-5731 5916-10921 10616-15561l49-48c4663-4705 9945-8226 15838-10556 5849-2315 12320-3457 19392-3427h32c5639-32 11039 736 16185 2303 4384 1336 8558 3239 12523 5703l8251-4707zm-32775 13467c-2862-1048-5881-1552-9030-1510l-48 16-72 7v2c-185 30-405 81-638 141l-638 111-1343 116c-3084 439-5863 1579-8325 3408-2615 1941-4929 4706-6934 8285l-6-5c-1998 3593-3320 7433-3958 11511-650 4136-610 8561 113 13258l9-2c796 4624 2132 8787 4000 12482 1840 3636 4210 6847 7104 9612l2-2c2934 2760 6009 4802 9215 6105 3133 1276 6418 1864 9842 1767v-3c1070-55 2145-171 3213-347v-2c1054-176 2090-407 3096-691l-3-7c1170-386 2292-814 3348-1276 1059-463 2099-973 3118-1521l-2-3c939-596 1773-1276 2493-2022 742-772 1410-1660 1992-2643l16-14c599-1003 1047-2076 1339-3199 293-1135 428-2344 404-3609l-16-79v-30354c-786-2730-1965-5266-3534-7608-1688-2522-3875-4878-6550-7067l-32-33c-2582-2168-5315-3777-8175-4824zm66507 122667h-19378v-136492h9134l2134 605 8064 4955c3948-2451 8084-4337 12395-5655 5126-1567 10503-2337 16114-2303h32c7074-30 13564 1112 19447 3427 5974 2348 11312 5874 16010 10572l-7 6c4672 4642 8195 9844 10551 15603l4-2c2356 5756 3533 12000 3533 18723 0 6693-1184 12921-3558 18678-2372 5746-5916 10969-10637 15655-4674 4654-9984 8158-15919 10496-5897 2321-12382 3486-19440 3486-5595 0-10977-798-16132-2386-2836-874-5595-1988-8269-3336v47968zm14109-63404 2-2c5112 4145 10852 6219 17239 6219l331-19h32c128-14 324-48 571-97l157-16c551-88 972-144 1251-164v-5c236-18 465-23 689-16 1928-305 3741-897 5438-1766 1851-950 3611-2263 5268-3933 1720-1750 3186-3710 4388-5874 1207-2180 2164-4601 2864-7252l17-63c783-2762 1243-5585 1373-8447 132-2892-65-5879-588-8952l-16-78c-705-4638-1978-8792-3812-12442-1810-3607-4203-6797-7164-9555l-46-46c-2862-2758-5909-4800-9127-6104-3181-1292-6557-1881-10113-1771l-127 17c-1382 0-2758 138-4119 404-1406 278-2837 696-4281 1249l-82 16c-1218 439-2431 1084-3624 1930-1240 879-2439 1963-3584 3244l9 7c-1003 1125-1750 2365-2231 3705-497 1385-746 2978-746 4777v30319c786 2700 1963 5232 3530 7581h16c1718 2575 3884 4961 6485 7134zm137417-72020c5821 2351 11143 5883 15937 10583 4860 4698 8501 9925 10931 15661 2427 5733 3623 11943 3590 18603v32c30 6621-1160 12799-3581 18520-2425 5736-6064 10975-10907 15714l-16 16c-4804 4663-10128 8177-15963 10523-5831 2349-12124 3526-18874 3526-6686 0-12953-1179-18788-3528-5821-2344-11173-5846-16049-10491l-65-46c-4781-4728-8394-9967-10831-15714-2434-5747-3657-11929-3657-18536 0-6637 1223-12845 3657-18596 2430-5736 6057-10965 10864-15667l16-17c4875-4700 10234-8230 16065-10583 5805-2340 12068-3498 18772-3466h32c6769-32 13064 1126 18867 3466zm-13582 13552c-2654-1327-5444-1995-8366-1995l-192-16c-553-28-1008-37-1350-26-206 7-396 28-549 58l-302 48c-3047 370-5785 1455-8198 3251-2506 1863-4728 4526-6665 7987l9 5c-1886 3551-3107 7356-3657 11404-562 4143-446 8595 351 13353 796 4702 2144 9000 4030 12879 1870 3847 4275 7285 7203 10302 2909 2929 5872 5003 8876 6202 2859 1142 5816 1508 8856 1085h33c3160-414 5957-1531 8389-3341 2499-1863 4677-4513 6529-7932 1937-3585 3185-7409 3736-11464 561-4141 418-8554-433-13228l-16-95c-687-4437-1889-8505-3592-12195-1684-3651-3871-6936-6545-9846v-16c-2629-2874-5347-5019-8147-6420zm53387-59934h19475v137179h-23553v-137179zm46236 6836c1854 781 3533 1933 5031 3447 1489 1445 2612 3081 3366 4901 765 1847 1151 3849 1151 5990 0 4254-1542 7925-4621 11004l-5-5c-1470 1538-3128 2687-4963 3454-1824 763-3813 1126-5939 1094v14c-2058 0-4027-400-5909-1196h-17c-1819-774-3509-1923-5048-3442l-49-48c-1496-1519-2626-3193-3382-5010-772-1843-1156-3803-1156-5865 0-2118 397-4120 1195-5997 779-1836 1935-3505 3465-5003l-6-7c1511-1512 3197-2656 5039-3421 1829-759 3792-1119 5868-1087v-14c2099 0 4096 398 5980 1191zm-13452 38542h19380v92746h-23458v-92746zm47882-161c4474-1700 9424-2465 14833-2301 3401 42 6693 444 9856 1198v16c3257 779 6399 1919 9416 3408 1884 934 3650 1882 5284 2832 1628 945 3170 1930 4605 2934l2185 1530-513 2580-2088 10505-1678 8452-5456-6654c-1033-1259-2252-2478-3650-3643-1429-1188-3084-2351-4955-3472l-64-33c-1808-1128-3664-2048-5556-2744-1886-693-3807-1179-5754-1445l-175-32c-1679-301-3290-409-4830-331h-16c-1466 74-2867 331-4191 759l-47 16c-1213 374-2260 853-3123 1429-781 522-1433 1139-1939 1835l4 2c-428 602-770 1288-1010 2051l-5-2c-247 793-393 1655-420 2575h13c0 848 118 1588 347 2215 210 585 534 1130 955 1625 481 497 1029 989 1641 1463h16c636 493 1328 969 2063 1410l2783 1422-7 12c701 349 1343 666 1912 936 1688 596 4036 1383 7377 2495l342 115c3121 1003 4615 1494 5717 1854l2809 916 65 16c5132 1762 9432 3639 12888 5625 3699 2126 6436 4406 8203 6836l-2 2c2307 3031 3800 6466 4461 10292 641 3708 493 7763-448 12151l-7-2c-946 4561-2717 8491-5292 11783-2610 3334-5997 5972-10142 7902l-65 16c-3941 1762-8214 2922-12798 3463-4510 532-9340 484-14472-157l-46-16c-4684-629-9194-1778-13529-3456-4330-1679-8482-3884-12445-6624l-2207-1526 536-2630 2317-11354 1627-7975 5396 6096c589 668 1475 1486 2635 2446l-7 7c1154 950 2622 2053 4402 3303l-2 3c1653 1095 3308 2039 4938 2818 1625 777 3324 1433 5074 1955v5c1313 336 2642 620 3993 846 1313 222 2712 395 4168 523v7c1318 78 2624 58 3902-58h14c1297-116 2684-354 4141-696 1223-391 2291-851 3192-1369 883-508 1649-1104 2287-1777l62-81c555-555 992-1138 1299-1739 324-631 560-1366 703-2196l49-254c180-765 229-1510 145-2220-87-742-312-1472-661-2173l-16-30c-564-1151-1718-2303-3449-3444-2039-1346-4795-2606-8270-3783l-222-78c-617-250-1488-576-2593-953-1108-374-2379-793-3762-1220l-143-49c-1297-451-2633-899-3935-1320l3-4c-1272-412-2340-743-3200-992l-463-160-2804-1197-3229-1381h-17c-1128-485-2323-1058-3546-1685-1154-592-2196-1174-3128-1734l-303-192c-892-647-1761-1327-2589-2027l7-7c-939-793-1711-1494-2317-2099l-110-143c-1677-1831-3027-3810-4042-5933-1035-2161-1722-4445-2052-6852l-16-111c-255-2284-280-4501-79-6628 208-2189 654-4254 1331-6165l17-31c684-1888 1512-3632 2466-5206 981-1618 2083-3047 3302-4267 3514-3627 7550-6302 12104-8029zm18151 33156 4 2zM93180 352610.587v-7207H55032v7207h15028v40392h8024v-40392zm72147 40392h9113l-10676-15912c6324-2448 9859-7820 9859-15435 0-10337-7004-16252-19176-16252h-19311v47599h8024v-14348h11287c748 0 1496 0 2176-68zm-22167-21556v-18836h11287c7345 0 11561 2993 11561 9248 0 6460-4216 9588-11561 9588zm84252 21556v-47599h-8024v47599zm47600-47599v47599h21148c10743 0 17339-4896 17339-13056 0-6392-3807-10948-10200-12036 5169-1224 8365-5236 8365-10607 0-7413-6121-11900-15980-11900zm8024 7139h12239c5100 0 8161 2176 8161 6189 0 4011-3061 6391-8161 6391h-12239zm0 19652h12239c6257 0 9996 2516 9996 6732 0 4488-3739 6936-9996 6936h-12239zm115532-26791h-8025v27879c0 8092-4827 12852-12579 12852-7821 0-12784-4828-12784-12852v-27879h-8024v27879c0 12444 7887 20060 20739 20060s20673-7616 20673-20060zm87855 47599v-47599h-7888v34203l-25499-34203h-7889v47599h8024v-34136l25364 34136zm81668-40392v-7207h-34000v47599h34816v-7208h-26792v-13124h23256v-7208h-23256v-12852z"></path></svg>